# 3ds Max Wavefront OBJ Exporter v0.94b - (c)2007 guruware
# File Created: 06.12.2009 19:23:11

#
# object Cylinder01
#

v  0.2088 1.0745 -0.0570
v  0.2094 0.8541 -0.7353
v  -27.2690 0.8420 -0.7353
v  -27.2696 1.0624 -0.0570
v  0.2110 0.2771 -1.1545
v  -27.2674 0.2650 -1.1545
v  0.2130 -0.4361 -1.1545
v  -27.2654 -0.4483 -1.1545
v  0.2145 -1.0131 -0.7353
v  -27.2638 -1.0253 -0.7353
v  0.2151 -1.2335 -0.0570
v  -27.2632 -1.2457 -0.0570
v  0.2145 -1.0131 0.6214
v  -27.2638 -1.0253 0.6214
v  0.2130 -0.4361 1.0406
v  -27.2654 -0.4483 1.0406
v  0.2110 0.2771 1.0406
v  -27.2674 0.2650 1.0406
v  0.2094 0.8541 0.6214
v  -27.2690 0.8420 0.6214
v  -32.0766 -0.1036 -0.0570
v  -8.5216 0.8981 0.1197
v  -6.9490 0.8981 0.1197
v  -6.4471 1.7997 -0.0140
v  -8.5216 1.4775 -0.0140
v  -4.3345 0.8982 0.1197
v  -4.3345 2.7981 0.0009
v  -2.2377 0.8982 0.1197
v  -2.2377 3.3258 0.0009
v  0.1086 0.8983 0.1197
v  0.1086 2.7982 0.0009
v  0.1086 0.8983 -0.1568
v  -2.2377 0.8982 -0.1568
v  -4.3345 0.8982 -0.1568
v  -6.9490 0.8981 -0.1568
v  -8.5216 0.8981 -0.1568
v  -8.5216 -1.1083 0.1059
v  -8.5216 -1.6877 -0.0278
v  -6.4471 -2.0098 -0.0278
v  -6.9490 -1.1082 0.1059
v  -4.3345 -3.0081 -0.0129
v  -4.3345 -1.1082 0.1059
v  -2.2377 -3.5358 -0.0129
v  -2.2377 -1.1082 0.1059
v  0.1086 -3.0081 -0.0129
v  0.1086 -1.1081 0.1059
v  0.1086 -1.1081 -0.1706
v  -2.2377 -1.1082 -0.1706
v  -4.3345 -1.1082 -0.1706
v  -6.9490 -1.1082 -0.1706
v  -8.5216 -1.1083 -0.1706
v  -8.5216 -0.1280 0.8761
v  -6.9490 -0.1280 0.8761
v  -6.4471 -0.0025 1.7788
v  -8.5216 0.0004 1.4567
v  -4.3345 -0.1280 0.8761
v  -4.3345 -0.0264 2.7770
v  -2.2377 -0.1279 0.8761
v  -2.2377 -0.0312 3.3046
v  0.1086 -0.1279 0.8761
v  0.1086 -0.0263 2.7770
v  0.1086 0.1486 0.8786
v  -2.2377 0.1486 0.8786
v  -4.3345 0.1485 0.8786
v  -6.9490 0.1485 0.8786
v  -8.5216 0.1485 0.8786
v  -8.5216 -0.1280 -1.0823
v  -8.5216 0.0004 -1.6629
v  -6.4471 -0.0025 -1.9850
v  -6.9490 -0.1280 -1.0823
v  -4.3345 -0.0264 -2.9832
v  -4.3345 -0.1280 -1.0823
v  -2.2377 -0.0312 -3.5109
v  -2.2377 -0.1279 -1.0823
v  0.1086 -0.0263 -2.9832
v  0.1086 -0.1279 -1.0823
v  0.1086 0.1486 -1.0848
v  -2.2377 0.1486 -1.0848
v  -4.3345 0.1485 -1.0848
v  -6.9490 0.1485 -1.0848
v  -8.5216 0.1485 -1.0848
v  -23.0841 0.9703 0.0598
v  -22.0446 0.9703 0.0598
v  -21.7128 1.5663 -0.0286
v  -23.0841 1.3533 -0.0286
v  -20.3163 0.9704 0.0598
v  -20.3163 2.2263 -0.0187
v  -18.9303 0.9704 0.0598
v  -18.9303 2.5751 -0.0187
v  -17.3793 0.9704 0.0598
v  -17.3793 2.2263 -0.0187
v  -17.3793 0.9704 -0.1230
v  -18.9303 0.9704 -0.1230
v  -20.3163 0.9704 -0.1230
v  -22.0446 0.9703 -0.1230
v  -23.0841 0.9703 -0.1230
v  -23.0841 -1.1025 0.0507
v  -23.0841 -1.4855 -0.0377
v  -21.7128 -1.6984 -0.0377
v  -22.0446 -1.1024 0.0507
v  -20.3163 -2.3583 -0.0279
v  -20.3163 -1.1024 0.0507
v  -18.9303 -2.7071 -0.0279
v  -18.9303 -1.1024 0.0507
v  -17.3793 -2.3583 -0.0279
v  -17.3793 -1.1024 0.0507
v  -17.3793 -1.1024 -0.1321
v  -18.9303 -1.1024 -0.1321
v  -20.3163 -1.1024 -0.1321
v  -22.0446 -1.1024 -0.1321
v  -23.0841 -1.1025 -0.1321
v  -23.0841 -0.1116 0.8969
v  -22.0446 -0.1116 0.8969
v  -21.7128 -0.0286 1.4937
v  -23.0841 -0.0267 1.2807
v  -20.3163 -0.1115 0.8969
v  -20.3163 -0.0444 2.1535
v  -18.9303 -0.1115 0.8969
v  -18.9303 -0.0475 2.5023
v  -17.3793 -0.1115 0.8969
v  -17.3793 -0.0443 2.1535
v  -17.3793 0.0713 0.8986
v  -18.9303 0.0713 0.8986
v  -20.3163 0.0713 0.8986
v  -22.0446 0.0712 0.8986
v  -23.0841 0.0712 0.8986
v  -23.0841 -0.1116 -1.1171
v  -23.0841 -0.0267 -1.5009
v  -21.7128 -0.0286 -1.7138
v  -22.0446 -0.1116 -1.1171
v  -20.3163 -0.0444 -2.3737
v  -20.3163 -0.1115 -1.1171
v  -18.9303 -0.0475 -2.7225
v  -18.9303 -0.1115 -1.1171
v  -17.3793 -0.0443 -2.3737
v  -17.3793 -0.1115 -1.1171
v  -17.3793 0.0713 -1.1187
v  -18.9303 0.0713 -1.1187
v  -20.3163 0.0713 -1.1187
v  -22.0446 0.0712 -1.1187
v  -23.0841 0.0712 -1.1187
# 141 vertices

vn -0.0019 1.0000 -0.0000
vn -0.0015 0.8090 -0.5879
vn -0.2095 0.7914 -0.5749
vn -0.2102 0.9780 -0.0000
vn -0.0006 0.3089 -0.9511
vn -0.2078 0.3024 -0.9304
vn 0.0006 -0.3092 -0.9510
vn -0.2057 -0.3023 -0.9306
vn 0.0015 -0.8091 -0.5877
vn -0.2041 -0.7917 -0.5753
vn 0.0019 -1.0000 0.0000
vn -0.2034 -0.9787 0.0000
vn 0.0015 -0.8091 0.5877
vn -0.2041 -0.7917 0.5753
vn 0.0006 -0.3092 0.9510
vn -0.2057 -0.3023 0.9306
vn -0.0006 0.3089 0.9511
vn -0.2078 0.3024 0.9304
vn -0.0015 0.8090 0.5879
vn -0.2095 0.7914 0.5749
vn -1.0000 -0.0034 0.0000
vn 1.0000 0.0009 -0.0000
vn -0.0374 0.1899 0.9811
vn -0.0217 0.1273 0.9916
vn -0.1481 0.1937 0.9699
vn -0.0675 0.2244 0.9722
vn -0.0041 0.0575 0.9983
vn -0.0365 0.0730 0.9967
vn 0.0038 0.0532 0.9986
vn 0.0015 0.0530 0.9986
vn -0.0001 0.0624 0.9981
vn 0.0151 0.0527 0.9985
vn 1.0000 -0.0005 -0.0000
vn 0.0105 0.0701 -0.9975
vn -0.0053 0.0708 -0.9975
vn -0.0045 0.0703 -0.9975
vn 0.0358 0.0827 -0.9959
vn -0.0174 0.0991 -0.9949
vn -0.0347 0.0733 -0.9967
vn -0.0200 0.1788 -0.9837
vn -0.0391 0.1311 -0.9906
vn -0.0002 0.2393 -0.9709
vn -0.0255 0.2055 -0.9783
vn -1.0000 0.0005 -0.0000
vn -0.0370 -0.1899 0.9811
vn -0.0670 -0.2243 0.9722
vn -0.1477 -0.1935 0.9699
vn -0.0214 -0.1273 0.9916
vn -0.0364 -0.0730 0.9967
vn -0.0040 -0.0574 0.9983
vn 0.0016 -0.0530 0.9986
vn 0.0039 -0.0532 0.9986
vn 0.0152 -0.0528 0.9985
vn 0.0001 -0.0624 0.9981
vn 0.0107 -0.0701 -0.9975
vn 0.0360 -0.0827 -0.9959
vn -0.0044 -0.0703 -0.9975
vn -0.0051 -0.0708 -0.9975
vn -0.0345 -0.0732 -0.9967
vn -0.0172 -0.0991 -0.9949
vn -0.0389 -0.1311 -0.9906
vn -0.0197 -0.1787 -0.9837
vn -0.0251 -0.2055 -0.9783
vn 0.0002 -0.2393 -0.9709
vn -0.0362 -0.9828 0.1810
vn -0.0205 -0.9927 0.1183
vn -0.1469 -0.9715 0.1848
vn -0.0663 -0.9741 0.2155
vn -0.0030 -0.9988 0.0484
vn -0.0354 -0.9973 0.0640
vn 0.0049 -0.9990 0.0441
vn 0.0026 -0.9990 0.0440
vn 0.0010 -0.9986 0.0533
vn 0.0162 -0.9989 0.0437
vn 0.0096 0.9968 0.0792
vn -0.0062 0.9968 0.0799
vn -0.0055 0.9968 0.0794
vn 0.0349 0.9951 0.0917
vn -0.0183 0.9940 0.1081
vn -0.0357 0.9960 0.0823
vn -0.0209 0.9820 0.1877
vn -0.0400 0.9894 0.1401
vn -0.0010 0.9687 0.2481
vn -0.0263 0.9764 0.2144
vn -0.0362 -0.9828 -0.1810
vn -0.0663 -0.9741 -0.2155
vn -0.1469 -0.9715 -0.1848
vn -0.0205 -0.9927 -0.1183
vn -0.0354 -0.9973 -0.0640
vn -0.0030 -0.9988 -0.0484
vn 0.0026 -0.9990 -0.0440
vn 0.0049 -0.9990 -0.0441
vn 0.0162 -0.9989 -0.0437
vn 0.0010 -0.9986 -0.0533
vn 1.0000 -0.0005 0.0000
vn 0.0096 0.9968 -0.0792
vn 0.0349 0.9951 -0.0917
vn -0.0055 0.9968 -0.0794
vn -0.0062 0.9968 -0.0799
vn -0.0357 0.9960 -0.0823
vn -0.0183 0.9940 -0.1081
vn -0.0400 0.9894 -0.1401
vn -0.0209 0.9820 -0.1877
vn -0.0263 0.9764 -0.2144
vn -0.0010 0.9687 -0.2481
vn -1.0000 0.0005 0.0000
# 106 vertex normals

vt 0.8451 0.5055 1.0468
vt 0.8876 0.5055 1.0289
vt 0.8873 0.9834 1.0348
vt 0.8451 0.9834 1.0540
vt 0.9325 0.5055 0.9998
vt 0.9320 0.9834 1.0021
vt 0.9759 0.5055 1.0021
vt 0.9754 0.9834 0.9998
vt 0.5411 0.5055 1.0021
vt 0.5823 0.5055 1.0348
vt 0.5821 0.9834 1.0289
vt 0.5406 0.9834 0.9998
vt 0.6245 0.5055 1.0540
vt 0.6245 0.9834 1.0468
vt 0.6667 0.5055 1.0348
vt 0.6670 0.9834 1.0289
vt 0.7114 0.5055 1.0021
vt 0.7119 0.9834 0.9998
vt 0.7578 0.5055 0.9998
vt 0.7583 0.9834 1.0021
vt 0.8027 0.5055 1.0289
vt 0.8029 0.9834 1.0348
vt 0.4753 0.7962 0.0005
vt 0.4405 0.8988 0.0005
vt 0.3064 0.7958 0.9995
vt 0.3581 0.9625 0.0005
vt 0.2562 0.9625 0.0005
vt 0.1737 0.8988 0.0005
vt 0.1423 0.7958 0.0005
vt 0.1737 0.6929 0.0005
vt 0.2562 0.6292 0.0005
vt 0.3581 0.6292 0.0005
vt 0.4405 0.6929 0.0005
vt 0.4462 0.4019 0.5000
vt 0.3750 0.4019 0.5000
vt 0.3175 0.4440 0.5000
vt 0.2955 0.5121 0.5000
vt 0.3175 0.5802 0.5000
vt 0.3750 0.6223 0.5000
vt 0.4462 0.6223 0.5000
vt 0.5037 0.5802 0.5000
vt 0.5257 0.5121 0.5000
vt 0.5037 0.4440 0.5000
vt 0.5395 0.3165 0.9995
vt 0.6177 0.3165 0.9995
vt 0.6426 0.3445 0.5164
vt 0.5395 0.3345 0.5164
vt 0.7444 0.3165 0.9995
vt 0.7444 0.3755 0.5703
vt 0.8486 0.3165 0.9995
vt 0.8486 0.3919 0.5703
vt 0.9685 0.3165 0.9995
vt 0.9685 0.3755 0.5703
vt 0.9685 0.3165 0.0005
vt 0.8519 0.3165 0.0005
vt 0.7477 0.3165 0.0005
vt 0.6177 0.3165 0.0005
vt 0.5395 0.3165 0.0005
vt 0.0800 0.0142 0.9995
vt 0.0800 0.0322 0.5164
vt 0.1831 0.0422 0.5164
vt 0.1582 0.0142 0.9995
vt 0.2881 0.0731 0.5703
vt 0.2881 0.0142 0.9995
vt 0.3924 0.0895 0.5703
vt 0.3924 0.0142 0.9995
vt 0.5090 0.0731 0.5703
vt 0.5090 0.0142 0.9995
vt 0.5090 0.0142 0.0005
vt 0.3924 0.0142 0.0005
vt 0.2881 0.0142 0.0005
vt 0.1582 0.0142 0.0005
vt 0.0800 0.0142 0.0005
vt 0.0791 0.3103 0.9995
vt 0.1573 0.3103 0.9995
vt 0.1822 0.3383 0.5164
vt 0.0791 0.3283 0.5164
vt 0.2872 0.3103 0.9995
vt 0.2872 0.3693 0.5703
vt 0.3915 0.3103 0.9995
vt 0.3915 0.3857 0.5703
vt 0.5081 0.3103 0.9995
vt 0.5081 0.3693 0.5703
vt 0.5081 0.3103 0.0005
vt 0.3915 0.3103 0.0005
vt 0.2872 0.3103 0.0005
vt 0.1573 0.3103 0.0005
vt 0.0791 0.3103 0.0005
vt 0.5314 0.1234 0.9995
vt 0.5314 0.1414 0.5164
vt 0.6346 0.1514 0.5164
vt 0.6096 0.1234 0.9995
vt 0.7396 0.1824 0.5703
vt 0.7396 0.1234 0.9995
vt 0.8438 0.1987 0.5703
vt 0.8438 0.1234 0.9995
vt 0.9605 0.1824 0.5703
vt 0.9605 0.1234 0.9995
vt 0.9605 0.1234 0.0005
vt 0.8438 0.1234 0.0005
vt 0.7396 0.1234 0.0005
vt 0.6096 0.1234 0.0005
vt 0.5314 0.1234 0.0005
vt 0.5285 0.2197 0.9995
vt 0.6067 0.2197 0.9995
vt 0.6316 0.2476 0.5164
vt 0.5285 0.2376 0.5164
vt 0.7333 0.2197 0.9995
vt 0.7333 0.2786 0.5703
vt 0.8376 0.2197 0.9995
vt 0.8376 0.2950 0.5703
vt 0.9575 0.2197 0.9995
vt 0.9575 0.2786 0.5703
vt 0.9575 0.2197 0.0005
vt 0.8409 0.2197 0.0005
vt 0.7366 0.2197 0.0005
vt 0.6067 0.2197 0.0005
vt 0.5285 0.2197 0.0005
vt 0.0910 0.1185 0.9995
vt 0.0910 0.1365 0.5164
vt 0.1941 0.1465 0.5164
vt 0.1692 0.1185 0.9995
vt 0.2992 0.1774 0.5703
vt 0.2992 0.1185 0.9995
vt 0.4034 0.1938 0.5703
vt 0.4034 0.1185 0.9995
vt 0.5200 0.1774 0.5703
vt 0.5200 0.1185 0.9995
vt 0.5200 0.1185 0.0005
vt 0.4034 0.1185 0.0005
vt 0.2992 0.1185 0.0005
vt 0.1692 0.1185 0.0005
vt 0.0910 0.1185 0.0005
vt 0.0644 0.2184 0.9995
vt 0.1426 0.2184 0.9995
vt 0.1675 0.2464 0.5164
vt 0.0644 0.2364 0.5164
vt 0.2725 0.2184 0.9995
vt 0.2725 0.2774 0.5703
vt 0.3768 0.2184 0.9995
vt 0.3768 0.2938 0.5703
vt 0.4934 0.2184 0.9995
vt 0.4934 0.2774 0.5703
vt 0.4934 0.2184 0.0005
vt 0.3768 0.2184 0.0005
vt 0.2725 0.2184 0.0005
vt 0.1426 0.2184 0.0005
vt 0.0644 0.2184 0.0005
vt 0.5370 0.0154 0.9995
vt 0.5370 0.0334 0.5164
vt 0.6401 0.0434 0.5164
vt 0.6151 0.0154 0.9995
vt 0.7451 0.0743 0.5703
vt 0.7451 0.0154 0.9995
vt 0.8494 0.0907 0.5703
vt 0.8494 0.0154 0.9995
vt 0.9660 0.0743 0.5703
vt 0.9660 0.0154 0.9995
vt 0.9660 0.0154 0.0005
vt 0.8494 0.0154 0.0005
vt 0.7451 0.0154 0.0005
vt 0.6151 0.0154 0.0005
vt 0.5370 0.0154 0.0005
# 163 texture coords

g Cylinder01
f 1/1/1 2/2/2 3/3/3 
f 3/3/3 4/4/4 1/1/1 
f 2/2/2 5/5/5 6/6/6 
f 6/6/6 3/3/3 2/2/2 
f 5/5/5 7/7/7 8/8/8 
f 8/8/8 6/6/6 5/5/5 
f 7/9/7 9/10/9 10/11/10 
f 10/11/10 8/12/8 7/9/7 
f 9/10/9 11/13/11 12/14/12 
f 12/14/12 10/11/10 9/10/9 
f 11/13/11 13/15/13 14/16/14 
f 14/16/14 12/14/12 11/13/11 
f 13/15/13 15/17/15 16/18/16 
f 16/18/16 14/16/14 13/15/13 
f 15/17/15 17/19/17 18/20/18 
f 18/20/18 16/18/16 15/17/15 
f 17/19/17 19/21/19 20/22/20 
f 20/22/20 18/20/18 17/19/17 
f 19/21/19 1/1/1 4/4/4 
f 4/4/4 20/22/20 19/21/19 
f 4/23/4 3/24/3 21/25/21 
f 3/24/3 6/26/6 21/25/21 
f 6/26/6 8/27/8 21/25/21 
f 8/27/8 10/28/10 21/25/21 
f 10/28/10 12/29/12 21/25/21 
f 12/29/12 14/30/14 21/25/21 
f 14/30/14 16/31/16 21/25/21 
f 16/31/16 18/32/18 21/25/21 
f 18/32/18 20/33/20 21/25/21 
f 20/33/20 4/23/4 21/25/21 
f 17/34/22 15/35/22 13/36/22 
f 13/36/22 11/37/22 9/38/22 
f 9/38/22 7/39/22 5/40/22 
f 5/40/22 2/41/22 1/42/22 
f 9/38/22 5/40/22 1/42/22 
f 13/36/22 9/38/22 1/42/22 
f 17/34/22 13/36/22 1/42/22 
f 19/43/22 17/34/22 1/42/22 
f 22/44/23 23/45/24 24/46/25 
f 24/46/25 25/47/26 22/44/23 
f 23/45/24 26/48/27 27/49/28 
f 27/49/28 24/46/25 23/45/24 
f 26/48/27 28/50/29 29/51/30 
f 29/51/30 27/49/28 26/48/27 
f 28/50/29 30/52/31 31/53/32 
f 31/53/32 29/51/30 28/50/29 
f 30/52/33 32/54/33 31/53/33 
f 32/54/34 33/55/35 29/51/36 
f 29/51/36 31/53/37 32/54/34 
f 33/55/35 34/56/38 27/49/39 
f 27/49/39 29/51/36 33/55/35 
f 34/56/38 35/57/40 24/46/41 
f 24/46/41 27/49/39 34/56/38 
f 35/57/40 36/58/42 25/47/43 
f 25/47/43 24/46/41 35/57/40 
f 36/58/44 22/44/44 25/47/44 
f 37/59/45 38/60/46 39/61/47 
f 39/61/47 40/62/48 37/59/45 
f 40/62/48 39/61/47 41/63/49 
f 41/63/49 42/64/50 40/62/48 
f 42/64/50 41/63/49 43/65/51 
f 43/65/51 44/66/52 42/64/50 
f 44/66/52 43/65/51 45/67/53 
f 45/67/53 46/68/54 44/66/52 
f 46/68/33 45/67/33 47/69/33 
f 47/69/55 45/67/56 43/65/57 
f 43/65/57 48/70/58 47/69/55 
f 48/70/58 43/65/57 41/63/59 
f 41/63/59 49/71/60 48/70/58 
f 49/71/60 41/63/59 39/61/61 
f 39/61/61 50/72/62 49/71/60 
f 50/72/62 39/61/61 38/60/63 
f 38/60/63 51/73/64 50/72/62 
f 51/73/44 38/60/44 37/59/44 
f 52/74/65 53/75/66 54/76/67 
f 54/76/67 55/77/68 52/74/65 
f 53/75/66 56/78/69 57/79/70 
f 57/79/70 54/76/67 53/75/66 
f 56/78/69 58/80/71 59/81/72 
f 59/81/72 57/79/70 56/78/69 
f 58/80/71 60/82/73 61/83/74 
f 61/83/74 59/81/72 58/80/71 
f 60/82/33 62/84/33 61/83/33 
f 62/84/75 63/85/76 59/81/77 
f 59/81/77 61/83/78 62/84/75 
f 63/85/76 64/86/79 57/79/80 
f 57/79/80 59/81/77 63/85/76 
f 64/86/79 65/87/81 54/76/82 
f 54/76/82 57/79/80 64/86/79 
f 65/87/81 66/88/83 55/77/84 
f 55/77/84 54/76/82 65/87/81 
f 66/88/44 52/74/44 55/77/44 
f 67/89/85 68/90/86 69/91/87 
f 69/91/87 70/92/88 67/89/85 
f 70/92/88 69/91/87 71/93/89 
f 71/93/89 72/94/90 70/92/88 
f 72/94/90 71/93/89 73/95/91 
f 73/95/91 74/96/92 72/94/90 
f 74/96/92 73/95/91 75/97/93 
f 75/97/93 76/98/94 74/96/92 
f 76/98/95 75/97/95 77/99/95 
f 77/99/96 75/97/97 73/95/98 
f 73/95/98 78/100/99 77/99/96 
f 78/100/99 73/95/98 71/93/100 
f 71/93/100 79/101/101 78/100/99 
f 79/101/101 71/93/100 69/91/102 
f 69/91/102 80/102/103 79/101/101 
f 80/102/103 69/91/102 68/90/104 
f 68/90/104 81/103/105 80/102/103 
f 81/103/106 68/90/106 67/89/106 
f 82/104/23 83/105/24 84/106/25 
f 84/106/25 85/107/26 82/104/23 
f 83/105/24 86/108/27 87/109/28 
f 87/109/28 84/106/25 83/105/24 
f 86/108/27 88/110/29 89/111/30 
f 89/111/30 87/109/28 86/108/27 
f 88/110/29 90/112/31 91/113/32 
f 91/113/32 89/111/30 88/110/29 
f 90/112/33 92/114/33 91/113/33 
f 92/114/34 93/115/35 89/111/36 
f 89/111/36 91/113/37 92/114/34 
f 93/115/35 94/116/38 87/109/39 
f 87/109/39 89/111/36 93/115/35 
f 94/116/38 95/117/40 84/106/41 
f 84/106/41 87/109/39 94/116/38 
f 95/117/40 96/118/42 85/107/43 
f 85/107/43 84/106/41 95/117/40 
f 96/118/44 82/104/44 85/107/44 
f 97/119/45 98/120/46 99/121/47 
f 99/121/47 100/122/48 97/119/45 
f 100/122/48 99/121/47 101/123/49 
f 101/123/49 102/124/50 100/122/48 
f 102/124/50 101/123/49 103/125/51 
f 103/125/51 104/126/52 102/124/50 
f 104/126/52 103/125/51 105/127/53 
f 105/127/53 106/128/54 104/126/52 
f 106/128/33 105/127/33 107/129/33 
f 107/129/55 105/127/56 103/125/57 
f 103/125/57 108/130/58 107/129/55 
f 108/130/58 103/125/57 101/123/59 
f 101/123/59 109/131/60 108/130/58 
f 109/131/60 101/123/59 99/121/61 
f 99/121/61 110/132/62 109/131/60 
f 110/132/62 99/121/61 98/120/63 
f 98/120/63 111/133/64 110/132/62 
f 111/133/44 98/120/44 97/119/44 
f 112/134/65 113/135/66 114/136/67 
f 114/136/67 115/137/68 112/134/65 
f 113/135/66 116/138/69 117/139/70 
f 117/139/70 114/136/67 113/135/66 
f 116/138/69 118/140/71 119/141/72 
f 119/141/72 117/139/70 116/138/69 
f 118/140/71 120/142/73 121/143/74 
f 121/143/74 119/141/72 118/140/71 
f 120/142/95 122/144/95 121/143/95 
f 122/144/75 123/145/76 119/141/77 
f 119/141/77 121/143/78 122/144/75 
f 123/145/76 124/146/79 117/139/80 
f 117/139/80 119/141/77 123/145/76 
f 124/146/79 125/147/81 114/136/82 
f 114/136/82 117/139/80 124/146/79 
f 125/147/81 126/148/83 115/137/84 
f 115/137/84 114/136/82 125/147/81 
f 126/148/44 112/134/44 115/137/44 
f 127/149/85 128/150/86 129/151/87 
f 129/151/87 130/152/88 127/149/85 
f 130/152/88 129/151/87 131/153/89 
f 131/153/89 132/154/90 130/152/88 
f 132/154/90 131/153/89 133/155/91 
f 133/155/91 134/156/92 132/154/90 
f 134/156/92 133/155/91 135/157/93 
f 135/157/93 136/158/94 134/156/92 
f 136/158/95 135/157/95 137/159/95 
f 137/159/96 135/157/97 133/155/98 
f 133/155/98 138/160/99 137/159/96 
f 138/160/99 133/155/98 131/153/100 
f 131/153/100 139/161/101 138/160/99 
f 139/161/101 131/153/100 129/151/102 
f 129/151/102 140/162/103 139/161/101 
f 140/162/103 129/151/102 128/150/104 
f 128/150/104 141/163/105 140/162/103 
f 141/163/106 128/150/106 127/149/106 
# 182 faces

