# 3ds Max Wavefront OBJ Exporter v0.94b - (c)2007 guruware
# File Created: 21.11.2009 11:07:04

#
# object aileronD
#

v  5.5386 23.5102 -42.1362
v  9.9218 23.0092 -19.3879
v  10.2568 23.3167 -42.1398
v  2.1928 23.1806 -19.3722
v  1.7270 23.5202 -16.2061
v  9.8506 23.0092 -14.5544
v  9.8447 23.0092 -12.7375
v  1.2708 24.4139 -12.6167
v  1.2533 21.7485 -12.6193
v  5.5386 23.1432 -42.1362
v  2.2038 22.4904 -19.3705
v  1.6137 22.3122 -16.2227
# 12 vertices

vn 0.0373 0.9992 0.0148
vn 0.0387 0.9992 -0.0031
vn 0.0410 0.9991 0.0141
vn 0.0221 0.9986 -0.0487
vn 0.0881 0.9879 -0.1275
vn 0.0627 0.9980 0.0005
vn 0.0879 0.9944 -0.0591
vn 0.1547 0.9631 -0.2201
vn 0.0139 -0.0011 0.9999
vn -0.0008 -0.0000 -1.0000
vn 0.0715 -0.9973 -0.0137
vn 0.0427 -0.9990 -0.0141
vn 0.0367 -0.9992 -0.0130
vn 0.0670 -0.9972 -0.0327
vn 0.1029 -0.9920 -0.0729
vn 0.0842 -0.9965 0.0007
vn 0.0996 -0.9944 -0.0363
vn 0.1419 -0.9801 -0.1391
# 18 vertex normals

vt 0.6442 0.4353 1.0000
vt 0.4400 0.4746 1.0000
vt 0.6442 0.4776 1.0000
vt 0.4399 0.4053 1.0000
vt 0.4111 0.4011 1.0000
vt 0.3962 0.4740 1.0000
vt 0.3788 0.4739 1.0000
vt 0.3777 0.3969 1.0000
vt 0.5733 0.4454 1.0000
vt 0.4964 0.4580 1.0000
vt 0.4962 0.4341 1.0000
vt 0.5060 0.4437 1.0000
vt 0.5060 0.4470 1.0000
vt 0.5484 0.4453 1.0000
vt 0.4400 0.4745 1.0000
vt 0.6442 0.4775 1.0000
vt 0.3962 0.4739 1.0000
vt 0.3788 0.4738 1.0000
# 18 texture coords

g aileronD
f 1/1/1 2/2/2 3/3/3 
f 4/4/4 2/2/2 1/1/1 
f 5/5/5 2/2/2 4/4/4 
f 6/6/6 2/2/2 5/5/5 
f 5/5/5 7/7/7 6/6/6 
f 8/8/8 7/7/7 5/5/5 
f 7/9/9 8/10/9 9/11/9 
f 10/12/10 1/13/10 3/14/10 
f 2/15/11 10/1/12 3/16/13 
f 11/4/14 10/1/12 2/15/11 
f 2/15/11 12/5/15 11/4/14 
f 6/17/16 12/5/15 2/15/11 
f 7/18/17 12/5/15 6/17/16 
f 9/8/18 12/5/15 7/18/17 
# 14 faces

