# 3ds Max Wavefront OBJ Exporter v0.94b - (c)2007 guruware
# File Created: 21.11.2009 11:06:33

#
# object leme
#

v  48.1394 58.2307 -0.3741
v  42.2370 36.7896 0.0088
v  34.0635 36.7896 -0.4704
v  52.6142 58.2171 0.0088
v  48.1394 58.2307 0.3917
v  34.0635 36.7896 0.4880
# 6 vertices

vn 0.0812 -0.0401 -0.9959
vn 0.0609 -0.0346 -0.9975
vn 0.0585 -0.0339 -0.9977
vn 0.0851 -0.0412 -0.9955
vn 0.0609 -0.0346 0.9975
vn 0.0812 -0.0401 0.9959
vn 0.0585 -0.0339 0.9977
vn 0.0851 -0.0412 0.9955
vn -0.0000 -1.0000 0.0000
vn 0.0030 1.0000 -0.0000
vn -0.8360 0.5488 -0.0000
# 11 vertex normals

vt 0.5778 0.7721 1.0000
vt 0.6306 0.5802 1.0000
vt 0.7030 0.5791 1.0000
vt 0.5383 0.7720 1.0000
vt 0.6303 0.5802 1.0000
vt 0.5380 0.7720 1.0000
vt 0.6468 0.6009 1.0000
vt 0.6543 0.6050 1.0000
vt 0.6159 0.6669 1.0000
vt 0.6371 0.5960 1.0000
vt 0.6212 0.6326 1.0000
vt 0.6431 0.5992 1.0000
vt 0.6601 0.6090 1.0000
vt 0.6231 0.6831 1.0000
vt 0.6628 0.6105 1.0000
vt 0.6209 0.6819 1.0000
# 16 texture coords

g leme
f 1/1/1 2/2/2 3/3/3 
f 1/1/1 4/4/4 2/2/2 
f 2/5/5 5/1/6 6/3/7 
f 4/6/8 5/1/6 2/5/5 
f 6/7/9 3/8/9 2/9/9 
f 5/10/10 4/11/10 1/12/10 
f 6/13/11 1/14/11 3/15/11 
f 5/16/11 1/14/11 6/13/11 
# 8 faces

