# 3ds Max Wavefront OBJ Exporter v0.94b - (c)2007 guruware
# File Created: 21.11.2009 11:06:17

#
# object profundor
#

v  42.2225 19.4799 32.5704
v  42.2225 19.9097 32.5703
v  40.9113 19.6948 32.5168
v  47.3380 19.4799 32.3024
v  47.3381 19.9097 32.3024
v  49.6139 20.1262 29.6770
v  44.6240 22.5044 12.9831
v  49.6139 22.9282 12.9831
v  29.0417 23.0282 12.9831
v  22.5329 23.3804 12.9831
v  29.0416 23.7326 12.9831
v  44.6794 23.3347 12.9748
v  47.3380 19.4799 -32.2849
v  47.3381 19.9097 -32.2849
v  49.6139 20.1262 -29.6594
v  42.2225 19.9097 -32.5528
v  42.2225 19.4799 -32.5528
v  40.9113 19.6948 -32.4992
v  49.6139 22.9282 -12.9656
v  44.6240 22.5044 -12.9656
v  29.0417 23.0282 -12.9656
v  22.5329 23.3804 -12.9656
v  29.0416 23.7326 -12.9656
v  44.6794 23.3347 -12.9572
# 24 vertices

vn 0.0083 0.0000 1.0000
vn -0.0408 0.0000 0.9992
vn 0.4150 -0.0001 0.9098
vn 0.4465 -0.0001 0.8948
vn 0.7556 -0.0002 0.6550
vn 0.0869 -0.9823 -0.1659
vn 0.0225 -0.9868 -0.1604
vn 0.0835 -0.9828 -0.1649
vn 0.0265 -0.9870 -0.1582
vn -0.0600 -0.9897 -0.1296
vn -0.0487 -0.9887 -0.1417
vn -0.1494 -0.9857 -0.0774
vn -0.0535 -0.9892 -0.1363
vn -0.1561 0.9442 0.2900
vn -0.0299 0.9760 0.2158
vn -0.0525 0.9711 0.2327
vn -0.0435 0.9759 0.2139
vn 0.0496 0.9841 0.1703
vn 0.0395 0.9848 0.1691
vn 0.0913 0.9826 0.1618
vn 0.0807 0.9830 0.1650
vn 0.4150 -0.0001 -0.9098
vn 0.4465 -0.0001 -0.8948
vn 0.7556 -0.0002 -0.6550
vn 0.0083 0.0000 -1.0000
vn -0.0408 0.0000 -0.9992
vn 0.0835 -0.9828 0.1649
vn 0.0225 -0.9868 0.1604
vn 0.0869 -0.9823 0.1659
vn 0.0265 -0.9870 0.1582
vn -0.0600 -0.9897 0.1296
vn -0.0487 -0.9887 0.1417
vn -0.1494 -0.9857 0.0774
vn -0.0535 -0.9892 0.1363
vn -0.0525 0.9711 -0.2327
vn -0.0299 0.9760 -0.2158
vn -0.1561 0.9442 -0.2900
vn -0.0435 0.9759 -0.2139
vn 0.0496 0.9841 -0.1703
vn 0.0395 0.9848 -0.1691
vn 0.0913 0.9826 -0.1618
vn 0.0807 0.9830 -0.1650
vn -0.0000 -0.0099 -1.0000
vn 0.0000 -0.0100 -0.9999
vn 0.0009 -0.0101 -0.9999
vn -0.0000 -0.0002 -1.0000
vn 0.0000 -0.0000 -1.0000
vn 0.0000 0.0000 1.0000
vn -0.0000 -0.0002 1.0000
vn -0.0000 -0.0099 1.0000
vn 0.0000 -0.0100 0.9999
vn 0.0009 -0.0101 0.9999
# 52 vertex normals

vt 0.8435 0.3007 1.0000
vt 0.8469 0.3027 1.0000
vt 0.8393 0.3119 1.0000
vt 0.8667 0.2611 1.0000
vt 0.8700 0.2630 1.0000
vt 0.8894 0.2337 1.0000
vt 0.8819 0.4189 1.0000
vt 0.8370 0.5702 1.0000
vt 0.8817 0.5708 1.0000
vt 0.8615 0.3947 1.0000
vt 0.8156 0.3923 1.0000
vt 0.6971 0.5708 1.0000
vt 0.8038 0.3931 1.0000
vt 0.6386 0.5713 1.0000
vt 0.8629 0.1653 1.0000
vt 0.7561 0.3441 1.0000
vt 0.6978 0.3435 1.0000
vt 0.8747 0.1652 1.0000
vt 0.8965 0.3437 1.0000
vt 0.9206 0.1676 1.0000
vt 0.9410 0.1912 1.0000
vt 0.9409 0.3431 1.0000
vt 0.8803 0.2073 1.0000
vt 0.8852 0.2108 1.0000
vt 0.9054 0.1810 1.0000
vt 0.8162 0.3011 1.0000
vt 0.8122 0.2979 1.0000
vt 0.7846 0.3363 1.0000
# 28 texture coords

g profundor
f 1/1/1 2/2/1 3/3/2 
f 4/4/3 2/2/1 1/1/1 
f 5/5/4 2/2/1 4/4/3 
f 6/6/5 5/5/4 4/4/3 
f 6/7/6 7/8/7 8/9/8 
f 7/8/7 6/7/6 4/10/9 
f 1/11/10 7/8/7 4/10/9 
f 1/11/10 9/12/11 7/8/7 
f 3/13/12 9/12/11 1/11/10 
f 3/13/12 10/14/13 9/12/11 
f 3/15/14 11/16/15 10/17/16 
f 11/16/15 3/15/14 2/18/17 
f 2/18/17 12/19/18 11/16/15 
f 12/19/18 2/18/17 5/20/19 
f 6/21/20 12/19/18 5/20/19 
f 6/21/20 8/22/21 12/19/18 
f 13/4/22 14/5/23 15/6/24 
f 13/4/22 16/2/25 14/5/23 
f 17/1/25 16/2/25 13/4/22 
f 18/3/26 16/2/25 17/1/25 
f 19/9/27 20/8/28 15/7/29 
f 13/10/30 15/7/29 20/8/28 
f 13/10/30 20/8/28 17/11/31 
f 20/8/28 21/12/32 17/11/31 
f 17/11/31 21/12/32 18/13/33 
f 21/12/32 22/14/34 18/13/33 
f 22/17/35 23/16/36 18/15/37 
f 16/18/38 18/15/37 23/16/36 
f 23/16/36 24/19/39 16/18/38 
f 14/20/40 16/18/38 24/19/39 
f 14/20/40 24/19/39 15/21/41 
f 24/19/39 19/22/42 15/21/41 
f 7/23/43 12/24/44 8/25/45 
f 7/23/43 11/26/46 12/24/44 
f 9/27/47 11/26/46 7/23/43 
f 10/28/47 11/26/46 9/27/47 
f 21/27/48 23/26/49 22/28/48 
f 20/23/50 23/26/49 21/27/48 
f 24/24/51 23/26/49 20/23/50 
f 19/25/52 24/24/51 20/23/50 
# 40 faces

