# 3ds Max Wavefront OBJ Exporter v0.94b - (c)2007 guruware
# File Created: 21.11.2009 19:21:38

#
# object rodaF
#

v  -56.4665 8.7355 -0.4949
v  -56.4932 8.7376 0.0465
v  -56.3797 9.4092 -0.6602
v  -56.4231 9.4126 0.2157
v  -56.3529 9.7258 -0.2210
v  -53.8084 10.4857 -0.7111
v  -53.9041 13.9727 -1.6559
v  -52.0010 14.2856 -1.6559
v  -54.9236 10.9477 -0.7111
v  -53.9041 13.9727 1.6734
v  -53.8084 10.4857 0.7287
v  -52.0010 14.2856 1.6734
v  -54.9236 10.9477 0.7287
v  -40.6897 15.5713 -0.5486
v  -52.0068 10.2495 -0.4834
v  -43.8793 15.4335 -0.5486
v  -51.7776 9.8525 -0.4834
v  -52.0068 10.2495 0.4894
v  -40.6897 15.5713 0.5546
v  -43.8793 15.4335 0.5546
v  -51.7776 9.8525 0.4894
v  -54.3575 8.1053 0.0219
v  -53.4290 7.1397 0.0219
v  -53.1598 7.1924 0.0219
v  -54.4074 7.8413 0.0219
v  -55.5471 6.7218 0.0219
v  -53.2349 6.9565 0.0219
v  -55.5471 6.4609 0.0219
v  -53.4290 7.1397 0.0088
v  -54.3575 8.1053 0.0088
v  -53.1598 7.1924 0.0088
v  -54.4074 7.8413 0.0088
v  -53.2349 6.9565 0.0088
v  -55.5471 6.7218 0.0088
v  -55.5471 6.4609 0.0088
v  -54.2677 8.5857 -0.7982
v  -53.4382 8.9000 0.4405
v  -54.2677 8.5857 0.8158
v  -53.4386 8.9000 -0.4219
v  -55.7556 9.7656 -0.7982
v  -54.4113 7.7555 -0.7982
v  -55.9872 8.4083 -0.7982
v  -54.2902 9.1586 -0.7982
v  -53.4857 9.2263 -0.4219
v  -54.4113 7.7555 0.8158
v  -55.7556 9.7656 0.8158
v  -55.9872 8.4083 0.8158
v  -54.2920 9.1594 0.8158
v  -53.4870 9.2269 0.4405
v  -55.4199 6.9920 0.5370
v  -55.3223 6.9515 0.4313
v  -53.9403 10.5643 0.5370
v  -54.7210 10.8877 0.5370
v  -56.2007 7.3154 0.5370
v  -54.8186 10.9281 0.4313
v  -56.2983 7.3558 0.4313
v  -54.8186 10.9281 -0.4137
v  -56.2983 7.3558 -0.4137
v  -54.7210 10.8877 -0.5194
v  -56.2007 7.3154 -0.5194
v  -53.9403 10.5643 -0.5194
v  -55.4199 6.9920 -0.5194
v  -53.8426 10.5239 -0.4137
v  -55.3223 6.9515 -0.4137
v  -53.8426 10.5239 0.4313
v  -51.7749 9.8587 -0.4776
v  -52.0040 10.2556 -0.4776
v  -51.7749 9.8587 0.4952
v  -52.0040 10.2556 0.4952
v  -55.7411 9.7469 -0.1910
v  -55.8303 9.3483 0.3647
v  -55.9196 8.5344 0.1494
v  -55.8855 8.5318 -0.5395
v  -55.7751 9.3441 -0.7499
# 74 vertices

vn -0.9921 0.1156 -0.0495
vn -0.9921 0.1155 -0.0495
vn -0.9906 0.1273 -0.0495
vn -0.9871 0.1522 -0.0494
vn -0.0661 -0.2626 -0.9626
vn 0.0176 -0.2610 -0.9652
vn 0.0428 -0.2602 -0.9646
vn -0.1088 -0.2627 -0.9587
vn 0.0176 -0.2610 0.9652
vn -0.0661 -0.2626 0.9626
vn 0.0428 -0.2602 0.9646
vn -0.1088 -0.2627 0.9587
vn -0.3827 -0.9239 0.0000
vn 0.9031 -0.4295 0.0000
vn -0.9476 0.3194 -0.0000
vn 0.0002 -0.0126 -0.9999
vn -0.0041 -0.0035 -1.0000
vn 0.0006 -0.0135 -0.9999
vn -0.0045 -0.0026 -1.0000
vn -0.0041 -0.0035 1.0000
vn 0.0002 -0.0126 0.9999
vn 0.0006 -0.0135 0.9999
vn -0.0045 -0.0026 1.0000
vn 0.4584 -0.8888 0.0000
vn -0.5378 0.8431 -0.0000
vn 0.0000 0.0000 1.0000
vn 0.0000 -0.0000 -1.0000
vn 0.3544 -0.9351 -0.0000
vn 0.3544 -0.9351 0.0000
vn 0.3545 -0.9351 -0.0001
vn 0.1260 0.0050 -0.9920
vn 0.1871 0.0117 -0.9823
vn 0.4152 0.0453 -0.9086
vn 0.4187 0.0604 -0.9061
vn 0.1258 0.0053 0.9920
vn 0.1861 0.0123 0.9825
vn 0.4138 0.0470 0.9092
vn 0.4173 0.0624 0.9066
vn -0.3827 -0.9239 -0.0000
vn 0.9854 -0.1704 0.0000
vn 0.3827 0.9239 0.0000
vn 0.1922 0.9813 -0.0002
vn 0.3827 0.9239 -0.0000
vn 0.1924 0.9813 -0.0003
vn -0.0836 0.9965 -0.0006
vn -0.0839 0.9965 -0.0008
vn 0.3535 -0.1464 0.9239
vn 0.8535 -0.3535 0.3827
vn -0.3535 0.1464 0.9239
vn -0.3536 0.1464 0.9239
vn -0.8535 0.3535 0.3827
vn -0.8536 0.3536 0.3827
vn -0.8535 0.3535 -0.3827
vn -0.8536 0.3536 -0.3827
vn -0.3535 0.1464 -0.9239
vn -0.3536 0.1464 -0.9239
vn 0.3535 -0.1464 -0.9239
vn 0.8535 -0.3535 -0.3827
vn -0.9858 0.1682 -0.0000
vn -0.0304 -0.0058 -0.9995
vn -0.0272 -0.0143 -0.9995
vn -0.0309 -0.0045 -0.9995
vn -0.0268 -0.0155 -0.9995
vn -0.0267 -0.0140 0.9995
vn -0.0297 -0.0058 0.9995
vn -0.0302 -0.0045 0.9995
vn -0.0263 -0.0152 0.9995
vn 0.4993 -0.8664 -0.0000
vn 0.4993 -0.8664 -0.0001
vn 0.4994 -0.8664 -0.0002
vn -0.5702 0.8215 -0.0004
vn -0.5704 0.8214 -0.0010
vn -0.5700 0.8217 -0.0000
vn -0.5706 0.8212 -0.0015
vn -0.0563 0.8156 0.5759
vn -0.2543 -0.2153 0.9429
vn -0.2526 -0.2172 0.9429
vn -0.2479 -0.2223 0.9429
vn -0.2597 -0.2094 0.9427
vn -0.3319 -0.9432 -0.0128
vn -0.1586 -0.2229 -0.9619
vn -0.1603 -0.2209 -0.9620
vn -0.1538 -0.2281 -0.9614
vn -0.1658 -0.2149 -0.9625
vn 0.0008 0.8112 -0.5847
vn 0.0007 0.8112 -0.5847
vn 0.0008 0.8112 -0.5848
# 87 vertex normals

vt 0.5268 0.6046 1.0000
vt 0.5434 0.6047 1.0000
vt 0.5218 0.6252 1.0000
vt 0.5485 0.6253 1.0000
vt 0.5352 0.6349 1.0000
vt 0.8736 0.6415 1.0000
vt 0.8364 0.7354 1.0000
vt 0.8800 0.7621 1.0000
vt 0.8416 0.6417 1.0000
vt 0.9557 0.6710 1.0000
vt 0.9176 0.7030 1.0000
vt 0.9176 0.6710 1.0000
vt 0.9557 0.7030 1.0000
vt 0.9806 0.7543 1.0000
vt 0.9175 0.6472 1.0000
vt 0.8924 0.7543 1.0000
vt 0.9556 0.6472 1.0000
vt 0.8979 0.7364 1.0000
vt 0.9556 0.6467 1.0000
vt 0.9752 0.7364 1.0000
vt 0.9175 0.6467 1.0000
vt 0.3479 0.2419 1.0000
vt 0.0168 0.2539 1.0000
vt 0.2711 0.2774 1.0000
vt 0.0174 0.2418 1.0000
vt 0.0159 0.2080 1.0000
vt 0.3466 0.2355 1.0000
vt 0.3466 0.2062 1.0000
vt 0.0159 0.2337 1.0000
vt 0.2704 0.2346 1.0000
vt 0.2704 0.2071 1.0000
vt 0.6696 0.6307 1.0000
vt 0.7082 0.6171 1.0000
vt 0.7148 0.6222 1.0000
vt 0.6718 0.6228 1.0000
vt 0.6560 0.5766 1.0000
vt 0.7160 0.6147 1.0000
vt 0.6596 0.5695 1.0000
vt 0.8205 0.5757 1.0000
vt 0.7827 0.6026 1.0000
vt 0.7712 0.5757 1.0000
vt 0.8090 0.6026 1.0000
vt 0.5701 0.6395 1.0000
vt 0.6212 0.5861 1.0000
vt 0.5703 0.5975 1.0000
vt 0.6211 0.6118 1.0000
vt 0.6174 0.6290 1.0000
vt 0.6455 0.6259 1.0000
vt 0.6424 0.6354 1.0000
vt 0.6423 0.6354 1.0000
vt 0.8207 0.5157 1.0000
vt 0.7713 0.5678 1.0000
vt 0.7713 0.5157 1.0000
vt 0.8207 0.5678 1.0000
vt 0.4255 0.6543 1.0000
vt 0.4748 0.6286 1.0000
vt 0.4748 0.6543 1.0000
vt 0.4255 0.6286 1.0000
vt 0.5193 0.6557 1.0000
vt 0.5640 0.7050 1.0000
vt 0.5193 0.7050 1.0000
vt 0.5640 0.6557 1.0000
vt 0.5886 0.6935 1.0000
vt 0.5886 0.6672 1.0000
vt 0.7523 0.5354 1.0000
vt 0.7487 0.5354 1.0000
vt 0.7523 0.6535 1.0000
vt 0.7266 0.6535 1.0000
vt 0.7263 0.5354 1.0000
vt 0.7228 0.6535 1.0000
vt 0.7228 0.5354 1.0000
vt 0.7485 0.6535 1.0000
vt 0.5668 0.5979 1.0000
vt 0.5175 0.6400 1.0000
vt 0.5175 0.5979 1.0000
vt 0.5668 0.6400 1.0000
vt 0.6931 0.6645 1.0000
vt 0.6841 0.6752 1.0000
vt 0.7810 0.6612 1.0000
vt 0.8107 0.6612 1.0000
vt 0.6339 0.6952 1.0000
vt 0.6339 0.6655 1.0000
vt 0.5583 0.6908 1.0000
vt 0.5394 0.6725 1.0000
vt 0.5580 0.6697 1.0000
vt 0.5396 0.6890 1.0000
vt 0.6640 0.5951 1.0000
vt 0.6420 0.6134 1.0000
vt 0.6379 0.5952 1.0000
vt 0.6638 0.6135 1.0000
vt 0.8049 0.5578 1.0000
vt 0.7862 0.5390 1.0000
vt 0.7838 0.5577 1.0000
vt 0.8028 0.5391 1.0000
# 94 texture coords

g rodaF
f 1/1/1 2/2/2 3/3/3 
f 3/3/3 2/2/2 4/4/3 
f 5/5/4 3/3/3 4/4/3 
f 6/6/5 7/7/6 8/8/7 
f 9/9/8 7/7/6 6/6/5 
f 10/7/9 11/6/10 12/8/11 
f 11/6/10 10/7/9 13/9/12 
f 11/10/13 9/11/13 6/12/13 
f 13/13/13 9/11/13 11/10/13 
f 12/14/14 6/15/14 8/16/14 
f 11/17/14 6/15/14 12/14/14 
f 7/18/15 13/19/15 10/20/15 
f 13/19/15 7/18/15 9/21/15 
f 14/22/16 15/23/17 16/24/18 
f 14/22/16 17/25/19 15/23/17 
f 18/23/20 19/22/21 20/24/22 
f 21/25/23 19/22/21 18/23/20 
f 21/26/24 14/27/24 19/28/24 
f 17/29/24 14/27/24 21/26/24 
f 16/30/25 18/26/25 20/31/25 
f 16/30/25 15/29/25 18/26/25 
f 22/32/26 23/33/26 24/34/26 
f 23/33/26 22/32/26 25/35/26 
f 26/36/26 27/37/26 24/34/26 
f 27/37/26 26/36/26 28/38/26 
f 29/33/27 30/32/27 31/34/27 
f 30/32/27 29/33/27 32/35/27 
f 33/37/27 34/36/27 31/34/27 
f 34/36/27 33/37/27 35/38/27 
f 36/39/28 37/40/28 38/41/29 
f 39/42/30 37/40/28 36/39/28 
f 40/43/27 41/44/27 42/45/27 
f 40/43/27 36/46/31 41/44/27 
f 43/47/32 36/46/31 40/43/27 
f 43/47/32 39/48/33 36/46/31 
f 44/49/34 39/48/33 43/47/32 
f 45/44/26 46/43/26 47/45/26 
f 38/46/35 46/43/26 45/44/26 
f 48/47/36 46/43/26 38/46/35 
f 37/48/37 48/47/36 38/46/35 
f 37/48/37 49/50/38 48/47/36 
f 45/51/39 42/52/39 41/53/13 
f 47/54/39 42/52/39 45/51/39 
f 38/55/40 41/56/40 36/57/40 
f 45/58/40 41/56/40 38/55/40 
f 46/59/41 43/60/42 40/61/43 
f 48/62/44 43/60/42 46/59/41 
f 48/62/44 44/63/45 43/60/42 
f 49/64/46 44/63/45 48/62/44 
f 50/65/47 51/66/48 52/67/47 
f 53/68/49 50/65/47 52/67/47 
f 54/69/50 50/65/47 53/68/49 
f 53/68/49 55/70/51 54/69/50 
f 54/69/50 55/70/51 56/71/52 
f 55/70/51 57/72/53 56/71/52 
f 56/71/52 57/72/53 58/66/54 
f 57/72/53 59/67/55 58/66/54 
f 58/66/54 59/67/55 60/65/56 
f 59/67/55 61/68/57 60/65/56 
f 60/65/56 61/68/57 62/69/57 
f 61/68/57 63/70/58 62/69/57 
f 62/69/57 63/70/58 64/71/58 
f 65/72/48 64/71/58 63/70/58 
f 51/66/48 64/71/58 65/72/48 
f 52/67/47 51/66/48 65/72/48 
f 47/73/59 40/74/59 42/75/59 
f 46/76/59 40/74/59 47/73/59 
f 44/49/60 66/77/61 39/48/62 
f 44/49/60 67/78/63 66/77/61 
f 68/77/64 49/50/65 37/48/66 
f 69/78/67 49/50/65 68/77/64 
f 68/79/68 39/42/69 66/80/68 
f 37/40/70 39/42/69 68/79/68 
f 67/81/71 49/64/72 69/82/73 
f 49/64/72 67/81/71 44/63/74 
f 70/83/75 4/84/75 71/85/75 
f 5/86/75 4/84/75 70/83/75 
f 71/87/76 2/88/77 72/89/78 
f 4/90/79 2/88/77 71/87/76 
f 72/91/80 1/92/80 73/93/80 
f 2/94/80 1/92/80 72/91/80 
f 1/88/81 74/87/82 73/89/83 
f 1/88/81 3/90/84 74/87/82 
f 3/84/85 70/83/85 74/85/86 
f 3/84/85 5/86/87 70/83/85 
# 85 faces

