# 3ds Max Wavefront OBJ Exporter v0.94b - (c)2007 guruware
# File Created: 21.11.2009 11:59:25

#
# object studio_f16_mesh_08
#

v  -11.0376 4.0363 -12.5086
v  -11.2031 8.9404 -10.1564
v  -10.5198 4.0363 -12.5086
v  -10.3368 8.9404 -10.1564
v  -10.7984 3.4954 -11.3534
v  -11.0323 3.4901 -11.3571
v  -11.0376 2.6373 -12.5064
v  -10.5198 2.6373 -12.5064
v  -11.0664 3.7863 -12.0568
v  -11.2031 8.6264 -9.6106
v  -13.5232 8.5208 -8.5622
v  -13.1870 9.0121 -8.5924
v  -11.1816 8.2943 -10.4388
v  -11.0476 6.8566 -11.1060
v  -11.0712 5.2221 -11.1361
v  -11.1653 5.0835 -9.8666
v  -11.1653 7.9389 -10.0700
v  -11.1653 8.1497 -9.4677
v  -11.1653 7.5239 -9.0177
v  -11.0326 10.7784 -6.3062
v  -11.0326 10.2226 -5.6869
v  -27.5334 15.3824 -2.8599
v  -26.7532 14.8849 -2.7727
v  -18.5374 12.0767 -5.2066
v  -13.1830 9.0149 -8.5866
v  -13.5193 8.5235 -8.5572
v  -18.7945 11.5804 -5.2282
v  -13.4733 8.5066 -8.3143
v  -18.7696 11.2738 -5.0939
v  -27.2913 14.0409 -2.7727
v  -28.0715 14.5384 -2.8599
v  -9.9714 13.3996 -6.5591
v  -9.8722 18.7949 -4.7305
v  -9.8722 18.2631 -3.8062
v  -9.9714 13.9702 -7.5509
v  -10.7094 3.7865 -12.0577
v  -10.3368 8.6264 -9.6106
v  -13.4773 8.5043 -8.3192
v  -10.8970 8.1001 -10.1978
v  -13.1411 8.9956 -8.3494
v  -18.2556 12.0739 -5.0953
v  -13.1371 8.9980 -8.3437
v  -10.8083 5.0907 -9.8619
v  -10.7984 3.4953 -11.3534
v  -10.8083 7.5239 -9.0177
v  -10.5193 10.2226 -5.6869
v  -11.7757 13.3996 -6.5591
v  -10.8735 13.1967 -6.2064
v  -11.7757 13.9702 -7.5509
v  -10.8735 14.1731 -7.9037
v  -11.0073 19.0607 -5.1927
v  -12.1424 18.7949 -4.7305
v  -10.1516 13.9079 -7.3654
v  -10.3368 8.9404 -10.1565
v  -10.8856 14.0798 -7.6643
v  -10.7694 9.1005 -10.2072
v  -11.2032 8.9404 -10.1565
v  -11.6196 13.9079 -7.3654
v  -10.1516 13.5640 -6.7678
v  -10.7694 8.5759 -9.4791
v  -10.8856 13.3921 -6.4689
v  -11.2032 8.6264 -9.6106
v  -11.6196 13.5640 -6.7678
v  -11.2733 10.2931 -5.7825
v  -10.2654 10.2931 -5.7825
v  -10.7694 10.1140 -5.5532
v  -11.2733 10.6513 -6.2411
v  -10.2654 10.6513 -6.2411
v  -10.7694 10.8304 -6.4704
v  -10.0344 16.6491 -1.2928
v  -10.7694 16.9103 -1.6272
v  -11.5043 16.6491 -1.2928
v  -10.0344 16.1267 -0.6241
v  -10.7694 15.8655 -0.2897
v  -11.5043 16.1267 -0.6241
v  -10.8083 7.9359 -10.0667
v  -10.8083 8.1497 -9.4677
v  -10.5193 10.7784 -6.3062
v  -11.0154 3.0741 -11.1268
v  -11.1112 5.0442 -11.5649
v  -11.6581 5.0442 -11.5649
v  -11.9544 3.0741 -11.1268
v  -11.1112 5.0428 -12.4735
v  -11.0154 2.4827 -12.4695
v  -11.6581 5.0428 -12.4735
v  -11.9544 2.4827 -12.4695
v  -10.7142 5.2221 -11.1361
v  -12.1424 18.2631 -3.8062
v  -11.0073 17.9973 -3.3441
v  -14.4043 3.8136 -12.5544
v  -12.6396 6.8703 -12.5544
v  -13.9315 5.5784 -12.5544
v  -13.9315 2.0489 -12.5544
v  -12.6396 0.7570 -12.5544
v  -10.8748 0.2841 -12.5544
v  -9.1101 0.7570 -12.5544
v  -7.8182 2.0489 -12.5544
v  -7.3453 3.8136 -12.5544
v  -7.8182 5.5784 -12.5544
v  -9.1101 6.8703 -12.5544
v  -10.8748 7.3431 -12.5544
v  -7.8182 5.5784 -14.4911
v  -10.8748 7.3431 -14.4911
v  -9.1101 6.8703 -14.4911
v  -7.3453 3.8136 -14.4911
v  -7.8182 2.0489 -14.4911
v  -9.1101 0.7570 -14.4911
v  -10.8748 0.2841 -14.4911
v  -12.6396 0.7570 -14.4911
v  -13.9315 2.0489 -14.4911
v  -14.4043 3.8136 -14.4911
v  -13.9315 5.5784 -14.4911
v  -12.6396 6.8703 -14.4911
# 113 vertices

vn -0.0000 0.4325 -0.9017
vn 0.0071 -0.8029 0.5961
vn 0.0089 -0.8031 0.5958
vn 0.0009 -0.8023 0.5969
vn 0.0000 -0.8022 0.5970
vn -0.9981 -0.0039 -0.0612
vn -0.9997 -0.0219 -0.0126
vn -0.9997 -0.0207 -0.0159
vn -0.9979 -0.0025 -0.0651
vn -0.5703 0.3313 -0.7517
vn -0.5672 0.3422 -0.7491
vn -0.5782 0.3021 -0.7579
vn -0.5792 0.2981 -0.7587
vn -0.9981 -0.0118 -0.0601
vn -0.9989 -0.0272 0.0372
vn -0.9997 -0.0225 0.0006
vn -0.9979 -0.0071 -0.0637
vn -0.9999 -0.0010 -0.0146
vn -0.9999 0.0089 0.0123
vn -0.9999 0.0080 0.0105
vn -0.9995 0.0228 0.0215
vn -0.9995 0.0233 0.0209
vn 0.4108 0.7383 0.5350
vn -0.4195 0.2346 -0.8769
vn -0.6187 -0.3519 -0.7024
vn -0.3097 0.1998 -0.9296
vn -0.4104 -0.0883 -0.9076
vn -0.4518 -0.8918 0.0234
vn -0.5274 -0.3846 -0.7576
vn -0.3780 -0.6959 -0.6106
vn -0.2685 -0.0755 -0.9603
vn -0.2050 0.1307 -0.9700
vn 0.9998 -0.0154 -0.0089
vn 0.0021 -0.4510 0.8925
vn 0.0001 -0.4512 0.8924
vn 0.0023 -0.4510 0.8925
vn 0.0000 -0.4512 0.8924
vn 0.5066 -0.3747 0.7765
vn 0.4351 -0.5468 0.7153
vn 0.5268 -0.3119 0.7907
vn 0.4250 -0.5669 0.7057
vn -0.5273 -0.8486 0.0420
vn 0.1943 0.8687 -0.4556
vn 0.4988 0.8660 -0.0341
vn 0.4919 0.8694 -0.0471
vn 0.1822 0.8796 -0.4395
vn 0.1770 0.8872 -0.4262
vn 0.3730 0.9278 0.0051
vn 0.4550 0.8777 0.1505
vn 0.4601 0.8733 0.1602
vn 0.3663 0.9305 -0.0060
vn -0.0009 -0.5141 0.8577
vn 0.0041 -0.6829 0.7305
vn -0.0006 -0.5158 0.8567
vn -0.0003 -0.5796 0.8149
vn 0.0000 -0.5724 0.8199
vn 0.0000 -0.7770 0.6295
vn -0.0000 -0.8668 -0.4986
vn -0.0000 -0.8668 -0.4987
vn 0.4251 0.4503 -0.7852
vn 0.4131 0.4507 -0.7913
vn -0.0064 0.4872 -0.8733
vn 0.0063 0.4852 -0.8744
vn -0.4130 0.4334 -0.8010
vn -0.4250 0.4325 -0.7952
vn 0.4250 0.4313 -0.7958
vn 0.2818 0.4428 -0.8512
vn -0.0054 0.4673 -0.8841
vn 0.0048 0.4549 -0.8905
vn -0.2782 0.4330 -0.8574
vn -0.4248 0.4161 -0.8040
vn 0.3058 -0.4836 0.8201
vn 0.4190 -0.4731 0.7750
vn 0.0107 -0.5222 0.8527
vn -0.0022 -0.5254 0.8509
vn -0.3145 -0.5078 0.8020
vn -0.4249 -0.4783 0.7685
vn 0.9995 -0.0282 -0.0162
vn -0.0000 -0.7881 -0.6156
vn 0.5000 0.5396 -0.6774
vn -0.0000 0.6231 -0.7822
vn 0.0000 0.6231 -0.7822
vn -0.5000 0.5396 -0.6774
vn 0.9996 -0.0234 -0.0183
vn 0.8708 -0.3446 0.3507
vn 0.8587 -0.3581 0.3666
vn -0.0000 -0.6751 0.7377
vn -0.8587 -0.3581 0.3665
vn -0.8708 -0.3446 0.3507
vn -0.9996 -0.0234 -0.0183
vn 0.0018 0.8701 -0.4929
vn 0.0074 0.9432 -0.3322
vn 0.0110 0.9438 -0.3303
vn -0.0000 0.8668 -0.4987
vn -0.0000 0.7689 -0.6393
vn 0.0000 0.2171 0.9762
vn 0.9988 0.0485 -0.0001
vn 0.9991 0.0398 -0.0129
vn 0.9990 0.0443 -0.0063
vn 0.9992 0.0374 -0.0165
vn -0.9917 0.1220 -0.0398
vn -0.9889 0.1486 -0.0002
vn -0.9905 0.1359 -0.0193
vn -0.9921 0.1147 -0.0505
vn 0.9976 -0.0595 -0.0342
vn 0.9705 -0.0308 0.2393
vn 0.9976 -0.0676 -0.0123
vn 0.9363 -0.1064 0.3348
vn 0.9637 0.0572 0.2607
vn 0.9932 -0.0053 0.1159
vn 0.9967 -0.0334 0.0746
vn 0.9980 -0.0166 0.0610
vn 0.9999 0.0010 0.0145
vn 0.9995 -0.0193 -0.0268
vn 0.9996 -0.0173 -0.0228
vn 0.9977 -0.0497 -0.0467
vn 0.9977 -0.0507 -0.0455
vn 0.0000 -0.3019 -0.9533
vn -0.4250 -0.4699 0.7736
vn -0.4130 -0.4746 0.7773
vn -0.0056 -0.5111 0.8595
vn 0.0074 -0.5105 0.8598
vn 0.4236 -0.4548 0.7834
vn 0.4112 -0.4554 0.7897
vn 0.4160 -0.2349 0.8785
vn 0.4174 -0.2330 0.8783
vn 0.3208 -0.2034 0.9251
vn 0.3026 -0.1927 0.9334
vn 0.2180 -0.1390 0.9660
vn -0.9979 -0.0568 -0.0327
vn -0.9973 -0.0632 -0.0363
vn 0.0000 -0.9152 0.4031
vn 0.0000 1.0000 -0.0016
vn 0.0000 -0.0000 1.0000
vn -0.0000 -0.0000 1.0000
vn 0.0000 0.0000 1.0000
vn 0.0000 -0.0000 -1.0000
vn -0.0000 0.0000 -1.0000
vn 0.0000 0.0000 -1.0000
vn -0.0000 -0.0000 -1.0000
vn 0.8660 0.5000 0.0000
vn 0.5000 0.8660 0.0000
vn 0.8660 0.5000 -0.0000
vn 0.5000 0.8660 -0.0000
vn 0.0000 1.0000 -0.0000
vn -0.5000 0.8660 -0.0000
vn -0.8660 0.5000 -0.0000
vn -1.0000 0.0000 -0.0000
vn -0.8660 -0.5000 -0.0000
vn -0.5000 -0.8660 -0.0000
vn -0.5000 -0.8660 0.0000
vn -0.0000 -1.0000 0.0000
vn 0.5000 -0.8660 0.0000
vn 0.8660 -0.5000 0.0000
vn 1.0000 -0.0000 0.0000
# 155 vertex normals

vt 0.0247 0.2963 1.0000
vt 0.1567 0.2868 1.0000
vt 0.0252 0.3098 1.0000
vt 0.1577 0.3127 1.0000
vt 0.2871 0.6887 1.0000
vt 0.2869 0.6957 1.0000
vt 0.2442 0.6958 1.0000
vt 0.2442 0.6804 1.0000
vt 0.2701 0.6451 1.0000
vt 0.4026 0.6477 1.0000
vt 0.4019 0.6290 1.0000
vt 0.2693 0.6294 1.0000
vt 0.0994 0.9700 1.0000
vt 0.0950 0.9812 1.0000
vt 0.0354 0.9305 1.0000
vt 0.0216 0.8817 1.0000
vt 0.3210 0.6456 1.0000
vt 0.2740 0.6676 1.0000
vt 0.3380 0.6797 1.0000
vt 0.3778 0.6471 1.0000
vt 0.3928 0.6588 1.0000
vt 0.3843 0.6802 1.0000
vt 0.5097 0.6962 1.0000
vt 0.5056 0.7207 1.0000
vt 0.1202 0.9687 1.0000
vt 0.1314 0.9539 1.0000
vt 0.1746 0.7735 1.0000
vt 0.1973 0.6178 1.0000
vt 0.1843 0.6194 1.0000
vt 0.2040 0.7710 1.0000
vt 0.1920 0.7709 1.0000
vt 0.1813 0.6185 1.0000
vt 0.1842 0.7709 1.0000
vt 0.1340 0.9585 1.0000
vt 0.1387 0.9781 1.0000
vt 0.1604 0.9780 1.0000
vt 0.4436 0.8075 1.0000
vt 0.4111 0.9743 1.0000
vt 0.4424 0.9743 1.0000
vt 0.4089 0.8075 1.0000
vt 0.0974 0.9754 1.0000
vt 0.0435 0.9241 1.0000
vt 0.0430 0.9293 1.0000
vt 0.1796 0.7721 1.0000
vt 0.1773 0.6234 1.0000
vt 0.1721 0.6223 1.0000
vt 0.0957 0.9781 1.0000
vt 0.0437 0.9189 1.0000
vt 0.0384 0.9289 1.0000
vt 0.1019 0.9759 1.0000
vt 0.2906 0.6038 1.0000
vt 0.2252 0.6096 1.0000
vt 0.2255 0.6026 1.0000
vt 0.2902 0.6144 1.0000
vt 0.3361 0.6044 1.0000
vt 0.3359 0.6150 1.0000
vt 0.4627 0.6127 1.0000
vt 0.4629 0.5974 1.0000
vt 0.4203 0.7314 1.0000
vt 0.4203 0.7853 1.0000
vt 0.4081 0.7583 1.0000
vt 0.4544 0.7314 1.0000
vt 0.4544 0.7853 1.0000
vt 0.4666 0.7583 1.0000
vt 0.3753 0.9743 1.0000
vt 0.3796 0.8075 1.0000
vt 0.3503 0.8077 1.0000
vt 0.3393 0.9743 1.0000
vt 0.5294 0.9782 1.0000
vt 0.5136 0.7912 1.0000
vt 0.5049 0.9795 1.0000
vt 0.4994 0.7953 1.0000
vt 0.4845 0.7933 1.0000
vt 0.4802 0.9812 1.0000
vt 0.5322 0.7897 1.0000
vt 0.5498 0.9765 1.0000
vt 0.2622 0.7108 1.0000
vt 0.2622 0.7409 1.0000
vt 0.2535 0.7258 1.0000
vt 0.2796 0.7108 1.0000
vt 0.2796 0.7409 1.0000
vt 0.2882 0.7258 1.0000
vt 0.2734 0.9786 1.0000
vt 0.2796 0.7467 1.0000
vt 0.2916 0.9786 1.0000
vt 0.2943 0.7467 1.0000
vt 0.2622 0.7467 1.0000
vt 0.2481 0.9786 1.0000
vt 0.2494 0.7467 1.0000
vt 0.2294 0.9786 1.0000
vt 0.3404 0.6151 1.0000
vt 0.3236 0.6042 1.0000
vt 0.3235 0.6149 1.0000
vt 0.3405 0.6044 1.0000
vt 0.4621 0.6127 1.0000
vt 0.4623 0.5974 1.0000
vt 0.3890 0.7334 1.0000
vt 0.3861 0.7936 1.0000
vt 0.3698 0.7936 1.0000
vt 0.3609 0.7334 1.0000
vt 0.3180 0.7760 1.0000
vt 0.3050 0.7172 1.0000
vt 0.3451 0.7760 1.0000
vt 0.3451 0.6996 1.0000
vt 0.2340 0.6519 1.0000
vt 0.4910 0.7882 1.0000
vt 0.5040 0.7832 1.0000
vt 0.4781 0.7832 1.0000
vt 0.3393 0.9736 1.0000
vt 0.3503 0.8051 1.0000
vt 0.3753 0.9736 1.0000
vt 0.3796 0.8049 1.0000
vt 0.4111 0.9758 1.0000
vt 0.4089 0.8071 1.0000
vt 0.2046 0.6220 1.0000
vt 0.2177 0.6204 1.0000
vt 0.2295 0.7710 1.0000
vt 0.2096 0.7718 1.0000
vt 0.1889 0.9771 1.0000
vt 0.1674 0.9770 1.0000
vt 0.3076 0.9725 1.0000
vt 0.3157 0.8059 1.0000
vt 0.4656 0.7934 1.0000
vt 0.4596 0.9809 1.0000
vt 0.3942 0.7255 1.0000
vt 0.3505 0.6975 1.0000
vt 0.3942 0.6975 1.0000
vt 0.3505 0.7255 1.0000
vt 0.3506 0.7801 1.0000
vt 0.3235 0.7964 1.0000
vt 0.3506 0.7964 1.0000
vt 0.3235 0.7801 1.0000
vt 0.5594 0.8769 1.0000
vt 0.6093 0.9634 1.0000
vt 0.5727 0.9269 1.0000
vt 0.5727 0.8270 1.0000
vt 0.6093 0.7904 1.0000
vt 0.6593 0.7770 1.0000
vt 0.7092 0.7904 1.0000
vt 0.7458 0.8270 1.0000
vt 0.7592 0.8769 1.0000
vt 0.7458 0.9269 1.0000
vt 0.7092 0.9634 1.0000
vt 0.6593 0.9768 1.0000
vt 0.9619 0.9269 1.0000
vt 0.8754 0.9768 1.0000
vt 0.9253 0.9634 1.0000
vt 0.9753 0.8769 1.0000
vt 0.9619 0.8270 1.0000
vt 0.9253 0.7904 1.0000
vt 0.8754 0.7770 1.0000
vt 0.8254 0.7904 1.0000
vt 0.7889 0.8270 1.0000
vt 0.7755 0.8769 1.0000
vt 0.7889 0.9269 1.0000
vt 0.8254 0.9634 1.0000
vt 0.8172 0.7708 1.0000
vt 0.7126 0.6722 1.0000
vt 0.7126 0.7709 1.0000
vt 0.8172 0.6722 1.0000
# 160 texture coords

g studio_f16_mesh_08
f 1/1/1 2/2/1 3/3/1 
f 4/4/1 3/3/1 2/2/1 
f 5/5/2 6/6/3 7/7/4 
f 8/8/5 5/5/2 7/7/4 
f 9/9/6 10/10/7 2/11/8 
f 1/12/9 9/9/6 2/11/8 
f 11/13/10 12/14/11 13/15/12 
f 14/16/13 11/13/10 13/15/12 
f 15/17/14 9/9/15 6/18/16 
f 16/19/17 15/17/14 6/18/16 
f 15/17/14 16/19/17 17/20/18 
f 17/20/18 16/19/17 18/21/19 
f 18/21/19 16/19/17 19/22/20 
f 19/22/20 20/23/21 18/21/19 
f 21/24/22 20/23/21 19/22/20 
f 22/25/23 23/26/23 24/27/23 
f 25/28/24 26/29/25 24/30/26 
f 27/31/27 24/30/26 26/29/25 
f 28/32/28 29/33/29 26/29/25 
f 27/31/27 26/29/25 29/33/29 
f 29/33/29 30/34/30 27/31/27 
f 31/35/31 27/31/27 30/34/30 
f 27/31/27 31/35/31 24/30/26 
f 31/35/31 22/36/32 24/30/26 
f 32/37/33 33/38/33 34/39/33 
f 35/40/33 33/38/33 32/37/33 
f 36/3/34 10/2/35 9/1/36 
f 37/4/37 10/2/35 36/3/34 
f 38/13/38 39/15/39 40/14/40 
f 14/16/41 39/15/39 38/13/38 
f 14/41/42 38/42/42 11/43/42 
f 41/44/43 42/45/44 25/46/45 
f 24/27/46 41/44/43 25/46/45 
f 23/26/47 41/44/43 24/27/46 
f 12/47/48 39/48/49 13/49/50 
f 40/50/51 39/48/49 12/47/48 
f 43/51/52 6/52/53 44/53/53 
f 16/54/54 6/52/53 43/51/52 
f 45/55/55 16/54/54 43/51/52 
f 19/56/56 16/54/54 45/55/55 
f 45/55/55 21/57/57 19/56/56 
f 46/58/57 21/57/57 45/55/55 
f 47/59/58 32/60/58 48/61/59 
f 49/62/58 32/60/58 47/59/58 
f 35/63/58 32/60/58 49/62/58 
f 50/64/58 35/63/58 49/62/58 
f 33/38/60 35/40/61 51/65/62 
f 50/66/63 51/65/62 35/40/61 
f 49/67/64 51/65/62 50/66/63 
f 52/68/65 51/65/62 49/67/64 
f 53/69/66 54/70/67 55/71/68 
f 56/72/69 55/71/68 54/70/67 
f 57/73/70 55/71/68 56/72/69 
f 58/74/71 55/71/68 57/73/70 
f 37/70/72 59/69/73 60/72/74 
f 61/71/75 60/72/74 59/69/73 
f 60/72/74 61/71/75 62/73/76 
f 63/74/77 62/73/76 61/71/75 
f 54/70/78 53/69/78 37/75/78 
f 59/76/78 37/75/78 53/69/78 
f 64/77/79 65/78/79 66/79/79 
f 67/80/79 65/78/79 64/77/79 
f 68/81/79 65/78/79 67/80/79 
f 69/82/79 68/81/79 67/80/79 
f 70/83/80 68/84/80 71/85/81 
f 69/86/82 71/85/81 68/84/80 
f 67/84/83 71/85/81 69/86/82 
f 72/83/83 71/85/81 67/84/83 
f 68/84/84 70/83/84 65/87/85 
f 73/88/86 65/87/85 70/83/84 
f 65/87/85 73/88/86 66/89/87 
f 74/90/87 66/89/87 73/88/86 
f 74/90/87 75/88/88 66/89/87 
f 66/89/87 75/88/88 64/87/89 
f 75/88/88 72/83/90 64/87/89 
f 64/87/89 72/83/90 67/84/90 
f 18/91/91 76/92/92 17/93/93 
f 77/94/94 76/92/92 18/91/91 
f 18/91/91 20/95/95 77/94/94 
f 78/96/95 77/94/94 20/95/95 
f 79/97/96 80/98/96 81/99/96 
f 82/100/96 79/97/96 81/99/96 
f 80/101/97 79/102/98 83/103/99 
f 84/104/100 83/103/99 79/102/98 
f 82/102/101 81/101/102 85/103/103 
f 86/104/104 82/102/101 85/103/103 
f 37/10/105 36/9/106 4/11/107 
f 4/11/107 36/9/106 3/12/108 
f 36/9/106 8/105/109 3/12/108 
f 44/18/110 8/105/109 36/9/106 
f 87/17/111 44/18/110 36/9/106 
f 43/19/112 44/18/110 87/17/111 
f 87/17/111 76/20/113 43/19/112 
f 76/20/113 77/21/114 43/19/112 
f 45/22/115 43/19/112 77/21/114 
f 78/23/116 45/22/115 77/21/114 
f 46/24/117 45/22/115 78/23/116 
f 56/106/118 54/107/118 57/108/118 
f 88/109/119 47/110/120 89/111/121 
f 48/112/122 89/111/121 47/110/120 
f 89/111/121 48/112/122 34/113/123 
f 32/114/124 34/113/123 48/112/122 
f 28/115/125 42/116/126 41/117/127 
f 29/118/128 28/115/125 41/117/127 
f 41/117/127 23/119/129 29/118/128 
f 29/118/128 23/119/129 30/120/129 
f 49/67/130 88/121/130 52/68/130 
f 47/122/130 88/121/130 49/67/130 
f 62/123/131 58/74/131 57/73/131 
f 63/124/131 58/74/131 62/123/131 
f 84/125/132 82/126/132 86/127/132 
f 79/128/132 82/126/132 84/125/132 
f 85/129/133 80/130/133 83/131/133 
f 81/132/133 80/130/133 85/129/133 
f 90/133/134 91/134/134 92/135/134 
f 93/136/134 91/134/134 90/133/134 
f 94/137/134 91/134/134 93/136/134 
f 95/138/134 91/134/134 94/137/134 
f 96/139/134 91/134/134 95/138/134 
f 97/140/134 91/134/134 96/139/134 
f 98/141/134 91/134/134 97/140/134 
f 99/142/135 91/134/134 98/141/134 
f 100/143/136 91/134/134 99/142/135 
f 101/144/136 91/134/134 100/143/136 
f 102/145/137 103/146/138 104/147/137 
f 105/148/139 103/146/138 102/145/137 
f 106/149/139 103/146/138 105/148/139 
f 107/150/138 103/146/138 106/149/139 
f 108/151/138 103/146/138 107/150/138 
f 109/152/138 103/146/138 108/151/138 
f 110/153/138 103/146/138 109/152/138 
f 111/154/138 103/146/138 110/153/138 
f 112/155/140 103/146/138 111/154/138 
f 113/156/137 103/146/138 112/155/140 
f 102/157/141 100/158/142 99/159/143 
f 104/160/144 100/158/142 102/157/141 
f 104/160/144 101/159/145 100/158/142 
f 103/157/145 101/159/145 104/160/144 
f 103/157/145 91/158/146 101/159/145 
f 113/160/146 91/158/146 103/157/145 
f 113/160/146 92/159/147 91/158/146 
f 112/157/147 92/159/147 113/160/146 
f 112/157/147 90/158/148 92/159/147 
f 111/160/148 90/158/148 112/157/147 
f 111/160/148 93/159/149 90/158/148 
f 110/157/149 93/159/149 111/160/148 
f 110/157/149 94/158/150 93/159/149 
f 109/160/151 94/158/150 110/157/149 
f 109/160/151 95/159/152 94/158/150 
f 108/157/152 95/159/152 109/160/151 
f 108/157/152 96/158/153 95/159/152 
f 107/160/153 96/158/153 108/157/152 
f 107/160/153 97/159/154 96/158/153 
f 106/157/154 97/159/154 107/160/153 
f 106/157/154 98/158/155 97/159/154 
f 105/160/155 98/158/155 106/157/154 
f 105/160/155 99/159/143 98/158/155 
f 102/157/141 99/159/143 105/160/155 
# 158 faces

