# 3ds Max Wavefront OBJ Exporter v0.94b - (c)2007 guruware
# File Created: 21.11.2009 19:03:16

#
# object tampaF
#

v  -57.3501 12.4373 0.1574
v  -49.2407 12.7380 -2.9050
v  -57.3645 12.7946 -2.9845
v  -41.4093 12.3532 0.1589
v  -49.2407 12.8447 3.2075
v  -41.3614 12.9027 3.2065
v  -40.0129 12.5896 1.7953
v  -39.9765 12.4264 0.1576
v  -40.0129 12.5323 -1.4848
v  -41.3614 12.7946 -2.9845
v  -49.2689 12.4262 0.1576
v  -57.3645 12.9027 3.2065
# 12 vertices

vn 0.0031 0.9998 -0.0205
vn 0.0040 0.9942 0.1073
vn 0.0058 0.9936 0.1130
vn -0.0068 0.9998 -0.0187
vn 0.0062 0.9900 -0.1410
vn 0.0090 0.9841 -0.1776
vn 0.0142 0.9878 -0.1548
vn -0.0511 0.9985 -0.0174
vn 0.0111 0.9930 0.1177
vn 0.0082 0.9902 0.1392
vn 0.0064 0.9998 -0.0183
vn 0.0027 0.9891 -0.1474
vn -0.0058 -0.9936 -0.1130
vn 0.0073 -0.9841 0.1773
vn -0.0053 -0.9893 0.1459
vn -0.0142 -0.9878 0.1548
vn -0.0421 -0.9831 0.1779
vn 0.0509 -0.9937 0.1001
vn -0.0111 -0.9930 -0.1177
vn 0.0509 -0.9966 -0.0654
vn -0.0373 -0.9895 -0.1395
vn 0.0057 -0.9903 -0.1390
vn -0.0056 -0.9939 -0.1105
vn -0.0092 -0.9948 -0.1014
vn -0.0014 -0.9949 -0.1013
vn -0.0014 -0.9886 0.1509
vn -0.0027 -0.9891 0.1474
vn -0.0071 -0.9907 0.1360
vn -0.0092 -0.9907 0.1360
# 29 vertex normals

vt -0.1648 0.5574 1.0000
vt -0.1375 0.4851 1.0000
vt -0.1368 0.5575 1.0000
vt -0.1648 0.4153 1.0000
vt -0.1920 0.4851 1.0000
vt -0.1920 0.4150 1.0000
vt -0.1794 0.4029 1.0000
vt -0.1648 0.4025 1.0000
vt -0.1501 0.4029 1.0000
vt -0.1368 0.4150 1.0000
vt -0.1648 0.4853 1.0000
vt -0.1920 0.5575 1.0000
# 12 texture coords

g tampaF
f 1/1/1 2/2/2 3/3/3 
f 4/4/4 5/5/5 6/6/6 
f 7/7/7 4/4/4 6/6/6 
f 4/4/4 7/7/7 8/8/8 
f 9/9/9 4/4/4 8/8/8 
f 4/4/4 9/9/9 10/10/10 
f 10/10/10 2/2/2 4/4/4 
f 4/4/4 2/2/2 11/11/11 
f 2/2/2 1/1/1 11/11/11 
f 1/1/1 12/12/12 11/11/11 
f 11/11/11 12/12/12 5/5/5 
f 11/11/11 5/5/5 4/4/4 
f 1/1/13 3/3/13 2/2/13 
f 4/4/14 6/6/14 5/5/15 
f 7/7/16 6/6/17 4/4/17 
f 4/4/18 8/8/18 7/7/16 
f 9/9/19 8/8/20 4/4/20 
f 4/4/21 10/10/21 9/9/19 
f 10/10/22 4/4/22 2/2/23 
f 4/4/24 11/11/24 2/2/23 
f 2/2/25 11/11/25 1/1/25 
f 1/1/26 11/11/26 12/12/27 
f 11/11/28 5/5/28 12/12/27 
f 11/11/29 4/4/29 5/5/15 
# 24 faces

