# 3ds Max Wavefront OBJ Exporter v0.94b - (c)2007 guruware
# File Created: 21.11.2009 19:04:58

#
# object tampaD
#

v  -9.8520 13.0876 -2.0345
v  -28.9245 13.3008 -3.8933
v  -22.7949 12.9956 -1.8907
v  -9.8838 14.2941 -5.0338
v  -28.9406 14.1445 -5.5316
v  -9.8657 16.6312 -7.6593
v  -28.9428 16.4658 -7.8484
v  -9.9134 18.5696 -8.6381
v  -28.9301 18.7846 -8.5931
# 9 vertices

vn -0.0246 0.9329 0.3594
vn -0.0180 0.9081 0.4183
vn -0.0052 0.9861 0.1661
vn -0.0248 0.8493 0.5273
vn -0.0168 0.8081 0.5888
vn -0.0178 0.6076 0.7941
vn -0.0045 0.5260 0.8505
vn -0.0113 0.4393 0.8983
vn 0.0057 0.3057 0.9521
vn -0.0057 -0.3057 -0.9521
vn 0.0128 -0.4504 -0.8927
vn 0.0131 -0.7064 -0.7077
vn 0.0164 -0.8117 -0.5839
vn 0.0232 -0.7468 -0.6646
vn 0.0250 -0.8480 -0.5294
vn 0.0189 -0.8888 -0.4579
vn 0.0260 -0.9274 -0.3733
vn 0.0052 -0.9861 -0.1661
# 18 vertex normals

vt -0.1121 0.9184 1.0000
vt -0.1278 0.7496 1.0000
vt -0.1124 0.8037 1.0000
vt -0.1446 0.9184 1.0000
vt -0.1485 0.7496 1.0000
vt -0.1801 0.9188 1.0000
vt -0.1816 0.7497 1.0000
vt -0.2005 0.9183 1.0000
vt -0.2027 0.7497 1.0000
# 9 texture coords

g tampaD
f 1/1/1 2/2/2 3/3/3 
f 1/1/1 4/4/4 2/2/2 
f 4/4/4 5/5/5 2/2/2 
f 5/5/5 4/4/4 6/6/6 
f 7/7/7 5/5/5 6/6/6 
f 6/6/6 8/8/8 7/7/7 
f 8/8/8 9/9/9 7/7/7 
f 8/8/10 7/7/10 9/9/10 
f 6/6/11 7/7/11 8/8/11 
f 7/7/12 6/6/12 5/5/13 
f 5/5/14 6/6/14 4/4/15 
f 4/4/16 2/2/16 5/5/13 
f 1/1/17 2/2/17 4/4/15 
f 1/1/18 3/3/18 2/2/18 
# 14 faces

