# 3ds Max Wavefront OBJ Exporter v0.94b - (c)2007 guruware
# File Created: 28.11.2009 01:55:57

#
# object Box01
#

v  -309.8286 -1.3310 -446.6965
v  -309.8286 -1.3310 -577.2632
v  -181.8221 -1.3310 -577.2632
v  -181.8221 -1.3310 -446.6965
v  -309.8286 159.9573 -446.6965
v  -181.8221 159.9573 -446.6965
v  -181.8221 159.9573 -577.2632
v  -309.8286 159.9573 -577.2632
# 8 vertices

vn 0.0000 -1.0000 -0.0000
vn 0.0000 1.0000 -0.0000
vn 0.0000 0.0000 1.0000
vn 1.0000 0.0000 -0.0000
vn 0.0000 0.0000 -1.0000
vn -1.0000 0.0000 -0.0000
# 6 vertex normals

vt 128.0065 0.0000 0.0000
vt 128.0065 130.5667 0.0000
vt 0.0000 130.5667 0.0000
vt 0.0000 0.0000 0.0000
vt 128.0065 161.2882 0.0000
vt 0.0000 161.2882 0.0000
vt 130.5667 0.0000 0.0000
vt 130.5667 161.2882 0.0000
# 8 texture coords

g Box01
f 1/1/1 2/2/1 3/3/1 
f 3/3/1 4/4/1 1/1/1 
f 5/4/2 6/1/2 7/2/2 
f 7/2/2 8/3/2 5/4/2 
f 1/4/3 4/1/3 6/5/3 
f 6/5/3 5/6/3 1/4/3 
f 4/4/4 3/7/4 7/8/4 
f 7/8/4 6/6/4 4/4/4 
f 3/4/5 2/1/5 8/5/5 
f 8/5/5 7/6/5 3/4/5 
f 2/4/6 1/7/6 5/8/6 
f 5/8/6 8/6/6 2/4/6 
# 12 faces

