# 3ds Max Wavefront OBJ Exporter v0.94b - (c)2007 guruware
# File Created: 28.11.2009 01:52:53

#
# object Plane03
#

v  -628.5946 -1.3792 373.4269
v  19.2886 -1.3792 373.4269
v  19.2886 -1.3792 -114.6331
v  -628.5946 -1.3792 -114.6331
v  667.1719 -1.3792 373.4269
v  667.1719 -1.3792 -114.6331
v  19.2886 -1.3792 -602.6931
v  -628.5946 -1.3792 -602.6931
v  667.1719 -1.3792 -602.6931
v  19.2886 -1.3792 -1090.7529
v  -628.5946 -1.3792 -1090.7529
v  667.1719 -1.3792 -1090.7529
v  19.2886 -1.3792 -1578.8129
v  -628.5946 -1.3792 -1578.8129
v  667.1719 -1.3792 -1578.8129
v  19.2886 -1.3792 -2066.8728
v  -628.5946 -1.3792 -2066.8728
v  667.1719 -1.3792 -2066.8728
v  19.2886 -1.3792 -2554.9326
v  -628.5946 -1.3792 -2554.9326
v  667.1719 -1.3792 -2554.9326
v  19.2886 -1.3792 -3042.9927
v  -628.5946 -1.3792 -3042.9927
v  667.1719 -1.3792 -3042.9927
# 24 vertices

vn 0.0000 1.0000 -0.0000
# 1 vertex normals

vt 0.0005 0.0005 0.5000
vt 0.5000 0.0005 0.5000
vt 0.5000 0.1432 0.5000
vt 0.0005 0.1432 0.5000
vt 0.9995 0.0005 0.5000
vt 0.9995 0.1432 0.5000
vt 0.5000 0.2859 0.5000
vt 0.0005 0.2859 0.5000
vt 0.9995 0.2859 0.5000
vt 0.5000 0.4286 0.5000
vt 0.0005 0.4286 0.5000
vt 0.9995 0.4286 0.5000
vt 0.5000 0.5714 0.5000
vt 0.0005 0.5714 0.5000
vt 0.9995 0.5714 0.5000
vt 0.5000 0.7141 0.5000
vt 0.0005 0.7141 0.5000
vt 0.9995 0.7141 0.5000
vt 0.5000 0.8568 0.5000
vt 0.0005 0.8568 0.5000
vt 0.9995 0.8568 0.5000
vt 0.5000 0.9995 0.5000
vt 0.0005 0.9995 0.5000
vt 0.9995 0.9995 0.5000
# 24 texture coords

g Plane03
f 1/1/1 2/2/1 3/3/1 
f 3/3/1 4/4/1 1/1/1 
f 2/2/1 5/5/1 6/6/1 
f 6/6/1 3/3/1 2/2/1 
f 4/4/1 3/3/1 7/7/1 
f 7/7/1 8/8/1 4/4/1 
f 3/3/1 6/6/1 9/9/1 
f 9/9/1 7/7/1 3/3/1 
f 8/8/1 7/7/1 10/10/1 
f 10/10/1 11/11/1 8/8/1 
f 7/7/1 9/9/1 12/12/1 
f 12/12/1 10/10/1 7/7/1 
f 11/11/1 10/10/1 13/13/1 
f 13/13/1 14/14/1 11/11/1 
f 10/10/1 12/12/1 15/15/1 
f 15/15/1 13/13/1 10/10/1 
f 14/14/1 13/13/1 16/16/1 
f 16/16/1 17/17/1 14/14/1 
f 13/13/1 15/15/1 18/18/1 
f 18/18/1 16/16/1 13/13/1 
f 17/17/1 16/16/1 19/19/1 
f 19/19/1 20/20/1 17/17/1 
f 16/16/1 18/18/1 21/21/1 
f 21/21/1 19/19/1 16/16/1 
f 20/20/1 19/19/1 22/22/1 
f 22/22/1 23/23/1 20/20/1 
f 19/19/1 21/21/1 24/24/1 
f 24/24/1 22/22/1 19/19/1 
# 28 faces

