# 3ds Max Wavefront OBJ Exporter v0.94b - (c)2007 guruware
# File Created: 27.11.2009 01:00:30

#
# object rodafrente
#

v  -45.7272 8.9809 -0.6535
v  -45.0552 8.2015 -0.1769
v  -45.1305 8.2946 -0.6672
v  -45.4296 8.6416 -0.8793
v  -45.0715 13.6287 -1.4151
v  -42.6885 10.8334 -1.2666
v  -42.6885 10.7575 0.5441
v  -45.0715 13.5841 1.1423
v  -47.2169 16.0512 -1.2584
v  -47.2169 16.0066 1.2990
v  -45.6953 8.8844 -0.1973
v  -43.0115 11.6513 -0.8198
v  -45.7216 8.9219 -0.5159
v  -43.0849 11.6630 -0.9473
v  -42.0611 11.4231 0.5490
v  -42.0611 11.4991 -1.2617
v  -44.4047 14.3367 -0.1236
v  -47.1341 17.9113 0.0532
v  -45.7993 9.0574 -0.1598
v  -45.5915 8.8131 0.2301
v  -45.2603 8.4322 0.2224
v  -47.2547 8.9368 0.1254
v  -47.2566 9.2455 -0.2499
v  -47.2465 8.4510 0.1181
v  -47.2382 8.1539 -0.2664
v  -48.4393 7.7753 -0.3353
v  -48.9163 7.9286 -1.1951
v  -48.3373 7.7796 -0.5814
v  -49.2685 7.9138 -0.3450
v  -48.3373 7.7710 -0.0892
v  -48.9163 7.8989 0.5051
v  -48.0912 7.7692 0.0127
v  -48.0661 7.8927 0.8572
v  -47.8451 7.7710 -0.0892
v  -47.2159 7.8989 0.5051
v  -47.7432 7.7753 -0.3353
v  -46.8637 7.9138 -0.3450
v  -47.8451 7.7796 -0.5814
v  -47.2159 7.9286 -1.1951
v  -48.0912 7.7814 -0.6833
v  -48.0661 7.9348 -1.5472
v  -47.2507 9.1446 -0.7252
v  -47.2416 8.7101 -0.9426
v  -47.2359 8.2692 -0.7384
v  -45.5775 8.7615 -0.7518
v  -43.0186 11.4534 -1.0414
v  -45.3715 8.5238 -0.7275
v  -42.8625 11.1802 -1.0313
v  -42.7342 11.0494 -0.9244
v  -45.2587 8.3879 -0.4613
v  -48.0669 3.5368 -0.8194
v  -47.7470 7.9621 -0.6548
v  -47.7470 3.5345 -0.6869
v  -48.0669 7.9644 -0.7873
v  -48.3869 3.5345 -0.6869
v  -48.3869 7.9621 -0.6548
v  -48.5194 3.5289 -0.3670
v  -48.5194 7.9565 -0.3350
v  -48.3869 3.5234 -0.0471
v  -48.3869 7.9509 -0.0151
v  -48.0669 3.5210 0.0854
v  -48.0669 7.9486 0.1174
v  -47.7470 3.5234 -0.0471
v  -47.7470 7.9509 -0.0151
v  -47.6145 3.5289 -0.3670
v  -47.6145 7.9565 -0.3350
v  -42.8537 11.3938 0.0382
v  -45.6950 8.8885 -0.3874
v  -43.0115 11.6124 0.1064
v  -45.5176 8.6880 -0.5564
v  -42.7303 11.1221 0.0809
v  -45.3236 8.4623 -0.4482
v  -42.7342 11.0021 0.2022
v  -45.2591 8.3812 -0.1442
v  -42.8625 11.1239 0.3109
v  -45.3727 8.5057 0.1266
v  -43.0186 11.3960 0.5181
v  -45.5788 8.7422 0.1603
v  -43.0849 11.6134 0.2993
v  -45.7222 8.9126 -0.0684
v  -44.2670 12.9007 0.0608
v  -45.3905 8.5349 -0.2509
v  -44.1544 12.8678 -0.0878
v  -45.4951 8.6519 -0.1006
v  -44.4475 12.9576 0.0618
v  -45.6636 8.8457 -0.0967
v  -44.5601 12.9957 -0.0856
v  -45.7689 8.9702 -0.2422
v  -44.5199 12.9862 -0.2703
v  -45.7319 8.9319 -0.4276
v  -44.3573 12.9364 -0.3533
v  -45.5804 8.7593 -0.5132
v  -44.1946 12.8837 -0.2721
v  -45.4284 8.5827 -0.4346
v  -47.5892 3.1550 0.3882
v  -47.6136 3.5541 0.3952
v  -47.9132 3.8191 0.3998
v  -48.3124 3.7948 0.3994
v  -48.5774 3.4952 0.3942
v  -48.5530 3.0960 0.3872
v  -48.2534 2.8311 0.3826
v  -47.8542 2.8555 0.3830
v  -42.7303 11.1593 -0.8014
v  -45.3240 8.4561 -0.1535
v  -45.5183 8.6771 -0.0361
v  -42.8537 11.4271 -0.7548
v  -45.6338 5.1249 -2.8721
v  -47.1512 6.2273 -2.8721
v  -47.1512 6.2273 -1.5135
v  -45.6338 5.1249 -1.5135
v  -45.0543 3.3412 -2.8721
v  -45.0543 3.3412 -1.5135
v  -45.6338 1.5575 -2.8721
v  -45.6338 1.5575 -1.5135
v  -47.1512 0.4551 -2.8721
v  -47.1512 0.4551 -1.5135
v  -49.0267 0.4551 -2.8721
v  -49.0267 0.4551 -1.5135
v  -50.5440 1.5575 -2.8721
v  -50.5440 1.5575 -1.5136
v  -51.1236 3.3412 -2.8721
v  -51.1236 3.3412 -1.5136
v  -50.5440 5.1249 -2.8721
v  -50.5440 5.1249 -1.5136
v  -49.0267 6.2273 -2.8721
v  -49.0267 6.2273 -1.5136
v  -49.3165 2.4493 -1.0419
v  -49.6063 3.3412 -1.0419
v  -48.0889 3.3412 -1.0419
v  -49.3165 4.2331 -1.0419
v  -48.5578 4.7843 -1.0419
v  -47.6200 4.7843 -1.0419
v  -46.8614 4.2331 -1.0419
v  -46.5716 3.3412 -1.0419
v  -46.8614 2.4493 -1.0419
v  -47.6200 1.8981 -1.0419
v  -48.5578 1.8981 -1.0419
v  -48.5578 4.7843 -3.3438
v  -47.6200 4.7843 -3.3438
v  -46.8614 4.2331 -3.3438
v  -46.5716 3.3412 -3.3438
v  -46.8614 2.4493 -3.3438
v  -47.6200 1.8981 -3.3438
v  -48.5578 1.8981 -3.3438
v  -49.3165 2.4493 -3.3438
v  -49.6063 3.3412 -3.3438
v  -49.3165 4.2331 -3.3438
v  -48.0889 3.3412 -3.3438
v  -47.2159 18.4737 -0.7620
v  -46.8637 18.4589 0.0881
v  -48.0661 18.4799 -1.1141
v  -48.9163 18.4737 -0.7620
v  -49.2685 18.4589 0.0881
v  -48.9163 18.4440 0.9382
v  -48.0661 18.4379 1.2903
v  -47.2159 18.4440 0.9382
v  -48.2534 2.8510 -1.0579
v  -47.8542 2.8754 -1.0574
v  -48.5530 3.1160 -1.0532
v  -48.5774 3.5151 -1.0463
v  -48.3124 3.8147 -1.0410
v  -47.9132 3.8391 -1.0406
v  -47.6136 3.5741 -1.0452
v  -47.5892 3.1749 -1.0522
# 164 vertices

vn 0.7547 0.6560 0.0087
vn 0.9131 0.2342 0.3338
vn 0.7547 0.6560 0.0090
vn -0.7565 -0.6538 -0.0137
vn -0.7600 -0.6494 -0.0272
vn -0.7622 -0.6470 -0.0212
vn -0.7569 -0.6535 -0.0114
vn -0.7490 -0.6625 -0.0116
vn -0.4897 0.6292 0.6036
vn -0.3815 0.5234 0.7619
vn -0.6937 0.7051 0.1468
vn -0.6210 0.6631 0.4178
vn 0.1130 -0.1137 0.9871
vn 0.5932 0.3853 0.7068
vn 0.5536 0.4984 0.6672
vn 0.5421 0.4540 -0.7071
vn 0.7296 0.6834 0.0248
vn 0.5992 0.4384 0.6699
vn 0.7805 0.6246 0.0243
vn 0.0336 -0.0244 -0.9991
vn 0.5147 0.5400 -0.6659
vn 0.4958 0.4856 -0.7200
vn 0.4560 0.8386 0.2980
vn 0.3991 0.5572 0.7282
vn 0.6559 -0.1026 0.7478
vn -0.0009 0.4584 0.8888
vn 0.0603 0.7711 0.6338
vn -0.0565 -0.4501 0.8912
vn -0.0339 -0.8033 0.5946
vn 0.7276 -0.6855 -0.0287
vn 0.7275 -0.6855 -0.0288
vn 0.7276 -0.6854 -0.0287
vn -0.1645 -0.9862 -0.0163
vn -0.1135 -0.9847 -0.1320
vn -0.1154 -0.9848 -0.1302
vn -0.1645 -0.9862 -0.0177
vn -0.1170 -0.9882 0.0987
vn -0.1163 -0.9882 0.0994
vn -0.0018 -0.9895 0.1448
vn 0.0009 -0.9895 0.1447
vn 0.1105 -0.9892 0.0959
vn 0.1124 -0.9892 0.0939
vn 0.1554 -0.9877 -0.0166
vn 0.1554 -0.9877 -0.0177
vn 0.1093 -0.9858 -0.1274
vn 0.1099 -0.9858 -0.1267
vn -0.0017 -0.9846 -0.1748
vn 0.0008 -0.9846 -0.1748
vn 0.1183 0.9745 -0.1904
vn 0.1349 0.9820 -0.1323
vn 0.1218 0.8106 -0.5728
vn 0.0946 0.8033 -0.5880
vn 0.0380 -0.2286 -0.9728
vn 0.0453 0.0244 -0.9987
vn 0.0193 -0.8856 -0.4640
vn 0.0361 -0.7700 -0.6370
vn 0.0202 -0.9802 -0.1969
vn 0.0309 -0.9710 -0.2372
vn -0.5855 0.4580 -0.6689
vn -0.4027 0.2874 -0.8690
vn -0.3131 0.1836 -0.9318
vn -0.2623 0.1440 -0.9542
vn 0.3246 -0.4206 -0.8472
vn 0.1156 -0.2199 -0.9686
vn 0.3287 -0.4096 -0.8510
vn 0.5546 -0.6222 -0.5525
vn -0.0000 0.0072 -1.0000
vn 0.7058 0.0051 -0.7084
vn 0.7083 0.0051 -0.7059
vn -0.7083 0.0051 -0.7059
vn -0.7058 0.0051 -0.7084
vn -1.0000 -0.0000 0.0025
vn -1.0000 0.0000 -0.0025
vn -0.7059 -0.0051 0.7083
vn -0.7083 -0.0051 0.7059
vn -0.0000 -0.0072 1.0000
vn 0.7058 -0.0051 0.7083
vn 0.7083 -0.0051 0.7059
vn 1.0000 -0.0000 0.0025
vn 1.0000 0.0000 -0.0025
vn 0.0562 0.1404 -0.9885
vn -0.2725 0.4533 -0.8487
vn -0.0738 0.2478 -0.9660
vn 0.0510 0.1575 -0.9862
vn 0.4421 -0.2481 -0.8620
vn 0.5739 -0.4275 -0.6984
vn 0.6649 -0.5478 -0.5078
vn 0.7033 -0.6354 -0.3187
vn 0.3571 -0.4244 0.8321
vn 0.5858 -0.6019 0.5426
vn 0.3199 -0.4204 0.8490
vn 0.3616 -0.4361 0.8241
vn -0.2644 0.1546 0.9519
vn -0.3012 0.1669 0.9388
vn -0.7189 0.6789 0.1494
vn -0.6989 0.6472 0.3044
vn -0.6749 0.6939 -0.2511
vn -0.6975 0.7076 -0.1130
vn 0.4040 -0.1494 0.9025
vn 0.9444 -0.2775 0.1765
vn 0.9347 -0.2759 0.2240
vn 0.5043 -0.1780 0.8450
vn -0.4233 0.0907 0.9014
vn -0.2853 0.0486 0.9572
vn -0.9344 0.2698 0.2327
vn -0.9234 0.2659 0.2767
vn -0.7491 0.2485 -0.6140
vn -0.6528 0.2215 -0.7244
vn 0.0018 0.0393 -0.9992
vn 0.1518 -0.0053 -0.9884
vn 0.7542 -0.1938 -0.6274
vn 0.8022 -0.2080 -0.5596
vn -0.0000 -0.0175 0.9998
vn 0.0000 -0.0175 0.9998
vn 0.0000 -0.0174 0.9998
vn -0.0000 -0.0174 0.9998
vn 0.7233 -0.6235 0.2968
vn 0.6774 -0.5593 0.4778
vn 0.4844 -0.2626 0.8345
vn 0.6029 -0.4152 0.6813
vn 0.0962 0.1547 0.9833
vn 0.0939 0.1460 0.9848
vn 0.8090 0.5878 -0.0000
vn 0.3090 0.9511 -0.0000
vn 1.0000 -0.0000 0.0000
vn 1.0000 0.0000 -0.0000
vn 0.8090 -0.5878 0.0000
vn 0.3090 -0.9511 0.0000
vn -0.3090 -0.9511 0.0000
vn -0.3090 -0.9511 -0.0000
vn -0.8090 -0.5878 -0.0000
vn -1.0000 0.0000 -0.0000
vn -0.8090 0.5878 -0.0000
vn -0.3090 0.9511 -0.0000
vn -0.2969 0.0000 0.9549
vn -0.2402 -0.1745 0.9549
vn -0.1450 -0.1053 0.9838
vn -0.1792 0.0000 0.9838
vn -0.0000 0.0000 1.0000
vn -0.1450 0.1053 0.9838
vn -0.0554 0.1704 0.9838
vn 0.0554 0.1704 0.9838
vn 0.1450 0.1053 0.9838
vn 0.1792 0.0000 0.9838
vn 0.1450 -0.1053 0.9838
vn 0.0554 -0.1704 0.9838
vn -0.0554 -0.1704 0.9838
vn -0.2402 0.1745 0.9549
vn -0.0917 0.2823 0.9549
vn 0.0917 0.2823 0.9549
vn 0.2402 0.1745 0.9549
vn 0.2969 0.0000 0.9549
vn 0.2402 -0.1745 0.9549
vn 0.0917 -0.2823 0.9549
vn -0.0917 -0.2823 0.9549
vn -0.0917 0.2823 -0.9549
vn -0.0554 0.1704 -0.9838
vn -0.2402 0.1745 -0.9549
vn 0.0554 0.1704 -0.9838
vn 0.0917 0.2823 -0.9549
vn 0.1450 0.1053 -0.9838
vn 0.2402 0.1745 -0.9549
vn 0.1792 -0.0000 -0.9838
vn 0.2969 -0.0000 -0.9549
vn 0.1450 -0.1053 -0.9838
vn 0.2402 -0.1745 -0.9549
vn 0.0554 -0.1704 -0.9838
vn 0.0917 -0.2823 -0.9549
vn -0.0554 -0.1704 -0.9838
vn -0.0917 -0.2823 -0.9549
vn -0.1450 -0.1053 -0.9838
vn -0.2402 -0.1745 -0.9549
vn -0.1792 -0.0000 -0.9838
vn -0.2969 -0.0000 -0.9549
vn -0.1450 0.1053 -0.9838
vn 0.0000 -0.0000 -1.0000
vn 0.7041 0.0291 -0.7095
vn 0.7099 0.0289 -0.7037
vn 1.0000 -0.0002 0.0057
vn -0.0000 0.0410 -0.9992
vn 0.0000 0.0410 -0.9992
vn -0.7041 0.0291 -0.7095
vn -0.7099 0.0289 -0.7037
vn -1.0000 0.0002 -0.0057
vn -1.0000 -0.0002 0.0057
vn -0.7099 -0.0289 0.7037
vn -0.7041 -0.0291 0.7095
vn 0.0000 -0.0410 0.9992
vn -0.0000 -0.0410 0.9992
vn 0.7099 -0.0289 0.7037
vn 0.7041 -0.0291 0.7095
vn 1.0000 0.0002 -0.0057
vn -0.3258 -0.9453 -0.0131
vn -0.3253 -0.9455 -0.0131
vn 0.4380 -0.8989 -0.0124
vn -0.8991 -0.4376 -0.0061
vn -0.8984 -0.4391 -0.0061
vn -0.9453 0.3263 0.0045
vn -0.9458 0.3247 0.0045
vn -0.4380 0.8989 0.0124
vn -0.4387 0.8985 0.0124
vn 0.3253 0.9455 0.0131
vn 0.3259 0.9453 0.0131
vn 0.8985 0.4390 0.0061
vn 0.8991 0.4376 0.0061
vn 0.9458 -0.3247 -0.0045
vn 0.9453 -0.3263 -0.0045
vn 0.4387 -0.8985 -0.0124
# 208 vertex normals

vt 0.5054 0.6153 1.0000
vt 0.5650 0.6153 1.0000
vt 0.5463 0.6153 1.0000
vt 0.5258 0.6154 1.0000
vt 0.6384 0.1020 1.0000
vt 0.5528 0.0440 1.0000
vt 0.5505 0.0440 1.0000
vt 0.6370 0.1020 1.0000
vt 0.7126 0.1542 1.0000
vt 0.7112 0.1542 1.0000
vt 0.4191 0.1464 1.0000
vt 0.5778 0.0518 1.0000
vt 0.4202 0.1470 1.0000
vt 0.5782 0.0536 1.0000
vt 0.5709 0.0287 1.0000
vt 0.5732 0.0287 1.0000
vt 0.6601 0.0858 1.0000
vt 0.7695 0.1522 1.0000
vt 0.2533 0.4814 1.0000
vt 0.2524 0.4810 1.0000
vt 0.2534 0.4814 1.0000
vt 0.2554 0.4823 1.0000
vt 0.2570 0.4830 1.0000
vt 0.2758 0.4696 1.0000
vt 0.2747 0.4693 1.0000
vt 0.2782 0.4702 1.0000
vt 0.2800 0.4708 1.0000
vt 0.4063 0.4235 1.0000
vt 0.4138 0.4291 1.0000
vt 0.4066 0.4176 1.0000
vt 0.4134 0.4398 1.0000
vt 0.4061 0.4176 1.0000
vt 0.4129 0.4291 1.0000
vt 0.4060 0.4032 1.0000
vt 0.4128 0.4032 1.0000
vt 0.4061 0.3889 1.0000
vt 0.4129 0.3774 1.0000
vt 0.4063 0.3829 1.0000
vt 0.4134 0.3667 1.0000
vt 0.4066 0.3889 1.0000
vt 0.4138 0.3774 1.0000
vt 0.4067 0.4032 1.0000
vt 0.4140 0.4032 1.0000
vt 0.4905 0.4657 1.0000
vt 0.4893 0.5516 1.0000
vt 0.5078 0.5516 1.0000
vt 0.5087 0.4657 1.0000
vt 0.5282 0.5516 1.0000
vt 0.5267 0.4657 1.0000
vt 0.5487 0.5516 1.0000
vt 0.5446 0.4657 1.0000
vt 0.5674 0.5516 1.0000
vt 0.5629 0.4657 1.0000
vt 0.4153 0.1435 1.0000
vt 0.5718 0.0520 1.0000
vt 0.4080 0.1385 1.0000
vt 0.5634 0.0482 1.0000
vt 0.5594 0.0451 1.0000
vt 0.4039 0.1358 1.0000
vt 0.5906 0.1000 1.0000
vt 0.7470 0.0790 1.0000
vt 0.5904 0.0790 1.0000
vt 0.7472 0.1000 1.0000
vt 0.5904 0.1210 1.0000
vt 0.7470 0.1210 1.0000
vt 0.5899 0.1297 1.0000
vt 0.7465 0.1297 1.0000
vt 0.5894 0.1210 1.0000
vt 0.7460 0.1210 1.0000
vt 0.5892 0.1000 1.0000
vt 0.7458 0.1000 1.0000
vt 0.5894 0.0790 1.0000
vt 0.7460 0.0790 1.0000
vt 0.5899 0.0703 1.0000
vt 0.7465 0.0703 1.0000
vt 0.5700 0.0480 1.0000
vt 0.4192 0.1464 1.0000
vt 0.5767 0.0518 1.0000
vt 0.4131 0.1421 1.0000
vt 0.5616 0.0450 1.0000
vt 0.4062 0.1374 1.0000
vt 0.5580 0.0451 1.0000
vt 0.4037 0.1358 1.0000
vt 0.5617 0.0482 1.0000
vt 0.4075 0.1385 1.0000
vt 0.5700 0.0520 1.0000
vt 0.4147 0.1436 1.0000
vt 0.5767 0.0536 1.0000
vt 0.4199 0.1471 1.0000
vt 0.6161 0.0824 1.0000
vt 0.4084 0.1390 1.0000
vt 0.6151 0.0797 1.0000
vt 0.4120 0.1415 1.0000
vt 0.6178 0.0868 1.0000
vt 0.4179 0.1456 1.0000
vt 0.6190 0.0895 1.0000
vt 0.4217 0.1482 1.0000
vt 0.6187 0.0886 1.0000
vt 0.4205 0.1473 1.0000
vt 0.6172 0.0846 1.0000
vt 0.4152 0.1436 1.0000
vt 0.6156 0.0806 1.0000
vt 0.4098 0.1399 1.0000
vt 0.5859 0.0809 1.0000
vt 0.6037 0.0818 1.0000
vt 0.6154 0.0920 1.0000
vt 0.6144 0.1057 1.0000
vt 0.6011 0.1147 1.0000
vt 0.5833 0.1139 1.0000
vt 0.5715 0.1037 1.0000
vt 0.5726 0.0900 1.0000
vt 0.5628 0.0450 1.0000
vt 0.4060 0.1374 1.0000
vt 0.4127 0.1421 1.0000
vt 0.5710 0.0480 1.0000
vt 0.6286 0.4967 1.0000
vt 0.6286 0.4733 1.0000
vt 0.7043 0.4733 1.0000
vt 0.7043 0.4967 1.0000
vt 0.6286 0.5202 1.0000
vt 0.7043 0.5202 1.0000
vt 0.6286 0.5437 1.0000
vt 0.7043 0.5437 1.0000
vt 0.6286 0.5672 1.0000
vt 0.7043 0.5672 1.0000
vt 0.6286 0.5907 1.0000
vt 0.7043 0.5907 1.0000
vt 0.6286 0.6142 1.0000
vt 0.7043 0.6142 1.0000
vt 0.6286 0.6377 1.0000
vt 0.7043 0.6377 1.0000
vt 0.6286 0.6612 1.0000
vt 0.7043 0.6612 1.0000
vt 0.6286 0.6847 1.0000
vt 0.7043 0.6847 1.0000
vt 0.6286 0.7082 1.0000
vt 0.7043 0.7082 1.0000
vt 0.1386 0.3241 1.0000
vt 0.2008 0.3443 1.0000
vt 0.1697 0.3871 1.0000
vt 0.1386 0.3770 1.0000
vt 0.1386 0.4299 1.0000
vt 0.1075 0.3871 1.0000
vt 0.0883 0.4135 1.0000
vt 0.0883 0.4462 1.0000
vt 0.1075 0.4726 1.0000
vt 0.1386 0.4827 1.0000
vt 0.1697 0.4726 1.0000
vt 0.1889 0.4462 1.0000
vt 0.1889 0.4135 1.0000
vt 0.0765 0.3443 1.0000
vt 0.0380 0.3972 1.0000
vt 0.0380 0.4625 1.0000
vt 0.0765 0.5154 1.0000
vt 0.1386 0.5356 1.0000
vt 0.2008 0.5154 1.0000
vt 0.2392 0.4625 1.0000
vt 0.2392 0.3972 1.0000
vt 0.7305 0.3774 1.0000
vt 0.7300 0.3667 1.0000
vt 0.7307 0.4032 1.0000
vt 0.7305 0.4291 1.0000
vt 0.7300 0.4398 1.0000
vt 0.7296 0.4291 1.0000
vt 0.7294 0.4032 1.0000
vt 0.7296 0.3774 1.0000
vt 0.5724 0.1037 1.0000
vt 0.5735 0.0900 1.0000
vt 0.5842 0.1139 1.0000
vt 0.6019 0.1147 1.0000
vt 0.6152 0.1057 1.0000
vt 0.6163 0.0920 1.0000
vt 0.6046 0.0818 1.0000
vt 0.5868 0.0809 1.0000
# 174 texture coords

g rodafrente
f 1/1/1 2/2/2 3/3/1 
f 1/1/1 3/3/1 4/4/3 
f 5/5/4 6/6/5 7/7/6 
f 5/5/4 7/7/6 8/8/7 
f 9/9/8 5/5/4 8/8/7 
f 9/9/8 8/8/7 10/10/8 
f 11/11/9 12/12/10 13/13/11 
f 14/14/12 13/13/11 12/12/10 
f 7/7/13 15/15/14 8/8/15 
f 15/15/14 16/16/16 17/17/17 
f 15/15/14 17/17/17 8/8/15 
f 10/10/18 8/8/15 17/17/17 
f 10/10/18 17/17/17 18/18/19 
f 16/16/16 6/6/20 5/5/21 
f 16/16/16 5/5/21 17/17/17 
f 18/18/19 17/17/17 5/5/21 
f 18/18/19 5/5/21 9/9/22 
f 1/19/1 19/20/23 20/21/24 
f 1/19/1 20/21/24 21/22/25 
f 1/19/1 21/22/25 2/23/2 
f 22/24/26 19/20/23 23/25/27 
f 22/24/26 20/21/24 19/20/23 
f 24/26/28 20/21/24 22/24/26 
f 24/26/28 21/22/25 20/21/24 
f 25/27/29 21/22/25 24/26/28 
f 25/27/29 2/23/2 21/22/25 
f 16/16/30 7/7/31 6/6/32 
f 7/7/31 16/16/30 15/15/31 
f 26/28/33 27/29/34 28/30/35 
f 26/28/33 29/31/36 27/29/34 
f 30/32/37 29/31/36 26/28/33 
f 30/32/37 31/33/38 29/31/36 
f 32/34/39 31/33/38 30/32/37 
f 32/34/39 33/35/40 31/33/38 
f 34/36/41 33/35/40 32/34/39 
f 34/36/41 35/37/42 33/35/40 
f 36/38/43 35/37/42 34/36/41 
f 36/38/43 37/39/44 35/37/42 
f 38/40/45 37/39/44 36/38/43 
f 38/40/45 39/41/46 37/39/44 
f 40/42/47 39/41/46 38/40/45 
f 40/42/47 41/43/48 39/41/46 
f 28/30/35 41/43/48 40/42/47 
f 28/30/35 27/29/34 41/43/48 
f 23/44/49 19/45/50 1/46/51 
f 23/44/49 1/46/51 42/47/52 
f 42/47/52 1/46/51 4/48/53 
f 42/47/52 4/48/53 43/49/54 
f 43/49/54 4/48/53 3/50/55 
f 43/49/54 3/50/55 44/51/56 
f 44/51/56 3/50/55 2/52/57 
f 44/51/56 2/52/57 25/53/58 
f 13/13/59 14/14/60 45/54/61 
f 46/55/62 45/54/61 14/14/60 
f 45/54/61 46/55/62 47/56/63 
f 48/57/64 47/56/63 46/55/62 
f 47/56/63 48/57/64 49/58/65 
f 49/58/65 50/59/66 47/56/63 
f 51/60/67 52/61/68 53/62/69 
f 51/60/67 54/63/67 52/61/68 
f 55/64/70 54/63/67 51/60/67 
f 55/64/70 56/65/71 54/63/67 
f 57/66/72 56/65/71 55/64/70 
f 57/66/72 58/67/73 56/65/71 
f 59/68/74 58/67/73 57/66/72 
f 59/68/74 60/69/75 58/67/73 
f 61/70/76 60/69/75 59/68/74 
f 61/70/76 62/71/76 60/69/75 
f 63/72/77 62/71/76 61/70/76 
f 63/72/77 64/73/78 62/71/76 
f 65/74/79 64/73/78 63/72/77 
f 65/74/79 66/75/80 64/73/78 
f 53/62/69 66/75/80 65/74/79 
f 53/62/69 52/61/68 66/75/80 
f 67/76/81 68/77/82 69/78/83 
f 70/79/84 68/77/82 67/76/81 
f 71/80/85 70/79/84 67/76/81 
f 72/81/86 70/79/84 71/80/85 
f 73/82/87 72/81/86 71/80/85 
f 74/83/88 72/81/86 73/82/87 
f 75/84/89 74/83/90 73/82/91 
f 76/85/92 74/83/90 75/84/89 
f 77/86/93 76/85/92 75/84/89 
f 78/87/94 76/85/92 77/86/93 
f 79/88/95 78/87/94 77/86/93 
f 80/89/96 78/87/94 79/88/95 
f 69/78/97 80/89/96 79/88/95 
f 68/77/98 80/89/96 69/78/97 
f 81/90/99 82/91/100 83/92/101 
f 84/93/102 82/91/100 81/90/99 
f 85/94/103 84/93/102 81/90/99 
f 86/95/104 84/93/102 85/94/103 
f 87/96/105 86/95/104 85/94/103 
f 88/97/106 86/95/104 87/96/105 
f 89/98/107 88/97/106 87/96/105 
f 90/99/108 88/97/106 89/98/107 
f 91/100/109 90/99/108 89/98/107 
f 92/101/110 90/99/108 91/100/109 
f 93/102/111 92/101/110 91/100/109 
f 94/103/112 92/101/110 93/102/111 
f 83/92/101 94/103/112 93/102/111 
f 82/91/100 94/103/112 83/92/101 
f 95/104/113 96/105/113 97/106/113 
f 95/104/113 97/106/113 98/107/114 
f 95/104/113 98/107/114 99/108/114 
f 95/104/113 99/108/114 100/109/114 
f 95/104/113 100/109/114 101/110/115 
f 95/104/113 101/110/115 102/111/116 
f 50/59/117 49/58/118 103/112/119 
f 103/112/119 104/113/120 50/59/117 
f 104/113/120 103/112/119 105/114/121 
f 106/115/122 105/114/121 103/112/119 
f 105/114/121 106/115/122 11/11/9 
f 12/12/10 11/11/9 106/115/122 
f 107/116/123 108/117/124 109/118/124 
f 110/119/123 107/116/123 109/118/124 
f 111/120/125 107/116/123 110/119/123 
f 112/121/126 111/120/125 110/119/123 
f 113/122/127 111/120/125 112/121/126 
f 114/123/127 113/122/127 112/121/126 
f 115/124/128 113/122/127 114/123/127 
f 116/125/128 115/124/128 114/123/127 
f 117/126/129 115/124/128 116/125/128 
f 118/127/130 117/126/129 116/125/128 
f 119/128/131 117/126/129 118/127/130 
f 120/129/131 119/128/131 118/127/130 
f 121/130/132 119/128/131 120/129/131 
f 122/131/132 121/130/132 120/129/131 
f 123/132/133 121/130/132 122/131/132 
f 124/133/133 123/132/133 122/131/132 
f 125/134/134 123/132/133 124/133/133 
f 126/135/134 125/134/134 124/133/133 
f 108/136/124 125/134/134 126/135/134 
f 109/137/124 108/136/124 126/135/134 
f 122/138/135 120/139/136 127/140/137 
f 128/141/138 122/138/135 127/140/137 
f 128/141/138 127/140/137 129/142/139 
f 130/143/140 128/141/138 129/142/139 
f 131/144/141 130/143/140 129/142/139 
f 132/145/142 131/144/141 129/142/139 
f 133/146/143 132/145/142 129/142/139 
f 134/147/144 133/146/143 129/142/139 
f 135/148/145 134/147/144 129/142/139 
f 136/149/146 135/148/145 129/142/139 
f 137/150/147 136/149/146 129/142/139 
f 127/140/137 137/150/147 129/142/139 
f 124/151/148 122/138/135 128/141/138 
f 130/143/140 124/151/148 128/141/138 
f 126/152/149 124/151/148 130/143/140 
f 131/144/141 126/152/149 130/143/140 
f 109/153/150 126/152/149 131/144/141 
f 132/145/142 109/153/150 131/144/141 
f 110/154/151 109/153/150 132/145/142 
f 133/146/143 110/154/151 132/145/142 
f 112/155/152 110/154/151 133/146/143 
f 134/147/144 112/155/152 133/146/143 
f 114/156/153 112/155/152 134/147/144 
f 135/148/145 114/156/153 134/147/144 
f 116/157/154 114/156/153 135/148/145 
f 136/149/146 116/157/154 135/148/145 
f 118/158/155 116/157/154 136/149/146 
f 137/150/147 118/158/155 136/149/146 
f 120/139/136 118/158/155 137/150/147 
f 127/140/137 120/139/136 137/150/147 
f 125/152/156 138/144/157 123/151/158 
f 139/145/159 138/144/157 125/152/156 
f 108/153/160 139/145/159 125/152/156 
f 140/146/161 139/145/159 108/153/160 
f 107/154/162 140/146/161 108/153/160 
f 141/147/163 140/146/161 107/154/162 
f 111/155/164 141/147/163 107/154/162 
f 142/148/165 141/147/163 111/155/164 
f 113/156/166 142/148/165 111/155/164 
f 143/149/167 142/148/165 113/156/166 
f 115/157/168 143/149/167 113/156/166 
f 144/150/169 143/149/167 115/157/168 
f 117/158/170 144/150/169 115/157/168 
f 145/140/171 144/150/169 117/158/170 
f 119/139/172 145/140/171 117/158/170 
f 146/141/173 145/140/171 119/139/172 
f 121/138/174 146/141/173 119/139/172 
f 147/143/175 146/141/173 121/138/174 
f 123/151/158 147/143/175 121/138/174 
f 138/144/157 147/143/175 123/151/158 
f 147/143/175 138/144/157 148/142/176 
f 138/144/157 139/145/159 148/142/176 
f 139/145/159 140/146/161 148/142/176 
f 140/146/161 141/147/163 148/142/176 
f 141/147/163 142/148/165 148/142/176 
f 142/148/165 143/149/167 148/142/176 
f 143/149/167 144/150/169 148/142/176 
f 144/150/169 145/140/171 148/142/176 
f 145/140/171 146/141/173 148/142/176 
f 146/141/173 147/143/175 148/142/176 
f 39/41/177 149/159/178 150/160/179 
f 41/43/180 149/159/178 39/41/177 
f 41/43/180 151/161/181 149/159/178 
f 27/29/182 151/161/181 41/43/180 
f 27/29/182 152/162/183 151/161/181 
f 29/31/184 152/162/183 27/29/182 
f 29/31/184 153/163/185 152/162/183 
f 31/33/186 153/163/185 29/31/184 
f 31/33/186 154/164/187 153/163/185 
f 33/35/188 154/164/187 31/33/186 
f 33/35/188 155/165/189 154/164/187 
f 35/37/190 155/165/189 33/35/188 
f 35/37/190 156/166/191 155/165/189 
f 37/39/192 156/166/191 35/37/190 
f 37/39/192 150/160/179 156/166/191 
f 39/41/177 150/160/179 37/39/192 
f 101/110/193 157/167/194 158/168/195 
f 100/109/196 157/167/194 101/110/193 
f 100/109/196 159/169/197 157/167/194 
f 99/108/198 159/169/197 100/109/196 
f 99/108/198 160/170/199 159/169/197 
f 98/107/200 160/170/199 99/108/198 
f 98/107/200 161/171/201 160/170/199 
f 97/106/202 161/171/201 98/107/200 
f 97/106/202 162/172/203 161/171/201 
f 96/105/204 162/172/203 97/106/202 
f 96/105/204 163/173/205 162/172/203 
f 95/104/206 163/173/205 96/105/204 
f 95/104/206 164/174/207 163/173/205 
f 102/111/208 164/174/207 95/104/206 
f 102/111/208 158/168/195 164/174/207 
f 101/110/193 158/168/195 102/111/208 
# 226 faces

