# 3ds Max Wavefront OBJ Exporter v0.94b - (c)2007 guruware
# File Created: 27.11.2009 01:01:01

#
# object studio_a10_mesh_09
#

v  -51.7931 33.9372 0.4287
v  -52.9114 32.0220 0.8095
v  -51.8462 33.8584 0.6727
v  -51.7231 34.0399 -0.3392
v  -52.9114 32.0220 -1.4752
v  -51.7931 33.9372 -1.1070
v  -51.8462 33.8584 -1.3511
v  -35.0737 34.9017 0.8711
v  -33.7256 33.8994 2.4978
v  -33.7356 33.9989 -0.3199
v  -43.0768 33.3138 4.3629
v  -38.1161 32.8003 4.6873
v  -37.9438 33.5600 4.1267
v  -35.3137 33.4842 3.7979
v  -35.2555 34.3516 3.0221
v  -35.5724 34.9044 1.8696
v  -36.5832 35.0289 2.4736
v  -36.9426 34.4320 3.4173
v  -38.0304 35.2510 2.7982
v  -38.8910 34.5548 3.6158
v  -43.7121 34.7711 3.8429
v  -39.8381 35.6145 2.9582
v  -49.2732 32.7025 4.5349
v  -49.1230 30.9913 4.7856
v  -36.3931 35.5208 -0.3199
v  -36.4167 35.4518 -1.3740
v  -37.8129 35.9461 -1.4218
v  -37.4312 35.5879 -2.4012
v  -36.5832 35.0289 -3.1135
v  -35.0737 34.9017 -1.5110
v  -35.5724 34.9044 -2.5095
v  -33.7447 33.9044 -3.0459
v  -34.9531 34.9309 -0.3199
v  -36.4167 35.4518 0.7341
v  -37.4312 35.5879 1.7613
v  -38.8724 36.0097 1.9822
v  -37.8129 35.9461 0.7819
v  -64.1185 28.9983 3.2711
v  -61.9905 28.9935 4.3267
v  -61.5336 29.8400 4.1059
v  -58.8874 30.2083 4.5524
v  -58.1010 29.5157 4.8657
v  -55.9463 30.5314 4.7925
v  -52.5989 32.3978 4.5489
v  -49.4031 34.5645 4.0484
v  -44.3473 36.1136 3.1558
v  -40.6276 36.5194 2.0904
v  -39.3465 36.4966 0.8937
v  -37.8878 36.0545 -0.3199
v  -55.6705 32.0149 4.4868
v  -58.4132 31.5394 4.2622
v  -60.8020 31.0325 3.7856
v  -62.5679 30.6245 2.9037
v  -61.1807 32.0327 2.6323
v  -62.0213 31.7915 1.3090
v  -59.7132 32.4969 3.4582
v  -57.6727 33.1404 3.9026
v  -55.2144 33.7471 4.0812
v  -52.9373 33.6853 4.2159
v  -49.5134 36.2332 3.3714
v  -44.8770 37.1180 2.2390
v  -41.1021 37.0578 0.9488
v  -39.4923 36.6268 -0.3199
v  -36.9426 34.4320 -4.0572
v  -35.2555 34.3516 -3.6620
v  -37.9438 33.5600 -4.7665
v  -38.8910 34.5548 -4.2557
v  -38.0304 35.2510 -3.4380
v  -39.8381 35.6145 -3.5980
v  -38.8724 36.0097 -2.6220
v  -40.6276 36.5194 -2.7302
v  -39.3465 36.4966 -1.5336
v  -41.1021 37.0578 -1.5887
v  -41.2614 37.2077 -0.3199
v  -45.1956 37.6856 1.0298
v  -49.6034 37.3880 2.4274
v  -52.0138 37.0759 2.5054
v  -52.2021 35.8391 3.4444
v  -53.3244 35.1426 3.6748
v  -53.6271 36.1698 2.9856
v  -43.0768 33.3138 -5.0027
v  -51.9126 37.7737 1.1904
v  -49.6615 38.0669 1.1402
v  -45.3030 37.8822 -0.3199
v  -45.1956 37.6856 -1.6697
v  -44.8770 37.1180 -2.8788
v  -44.3473 36.1136 -3.7957
v  -43.7121 34.7711 -4.4828
v  -49.2732 32.7025 -5.1747
v  -49.4031 34.5645 -4.6883
v  -49.5134 36.2332 -4.0112
v  -49.6034 37.3880 -3.0673
v  -49.6615 38.0669 -1.7800
v  -49.6762 38.3103 -0.3199
v  -51.8655 38.0227 -0.3199
v  -53.8858 36.9612 1.7881
v  -55.1392 35.6765 3.0911
v  -54.9270 34.6716 3.7351
v  -56.9000 34.7245 3.3515
v  -58.6744 33.9204 2.9795
v  -56.2550 35.9335 2.4916
v  -52.0138 37.0759 -3.1453
v  -51.9126 37.7737 -1.8303
v  -52.5989 32.3978 -5.1888
v  -52.9373 33.6853 -4.8558
v  -52.2021 35.8390 -4.0843
v  -53.6271 36.1698 -3.6255
v  -53.8858 36.9612 -2.4280
v  -53.9754 37.3887 -0.3199
v  -55.9161 36.5291 1.2057
v  -57.9093 35.0430 2.2252
v  -59.2996 33.9674 1.9858
v  -59.9334 33.3331 2.2625
v  -57.5919 35.5870 1.0712
v  -55.7896 36.7228 -0.3199
v  -59.1188 34.3734 0.9850
v  -57.5135 35.7239 -0.3199
v  -57.5919 35.5870 -1.7110
v  -55.9161 36.5291 -1.8455
v  -60.5743 33.0948 1.1070
v  -59.1329 34.4222 -0.3199
v  -59.1188 34.3734 -1.6249
v  -57.9093 35.0430 -2.8651
v  -56.2550 35.9335 -3.1314
v  -55.1392 35.6765 -3.7310
v  -60.6960 33.0639 -0.3199
v  -60.5743 33.0948 -1.7469
v  -59.2996 33.9674 -2.6256
v  -56.9000 34.7245 -3.9914
v  -54.9270 34.6716 -4.3749
v  -53.3244 35.1426 -4.3147
v  -55.2144 33.7471 -4.7211
v  -62.0213 31.7915 -1.9489
v  -57.6727 33.1404 -4.5425
v  -55.6705 32.0149 -5.1266
v  -58.4132 31.5394 -4.9021
v  -58.8874 30.2083 -5.1923
v  -60.8020 31.0325 -4.4255
v  -61.5336 29.8400 -4.7457
v  -62.5679 30.6245 -3.5435
v  -61.1807 32.0327 -3.2721
v  -59.9334 33.3331 -2.9024
v  -58.6744 33.9204 -3.6194
v  -59.7132 32.4969 -4.0981
v  -55.9463 30.5314 -5.4324
v  -57.9878 29.6507 -5.1509
v  -62.0110 29.0089 -5.1410
v  -64.1185 28.9983 -3.9110
v  -63.5153 30.3898 -2.0626
v  -62.2217 31.7043 -0.3199
v  -63.5153 30.3898 1.4227
v  -49.4632 31.0104 -5.1720
v  -64.3873 28.2374 3.8453
v  -64.4068 29.5254 1.4036
v  -65.3239 28.7835 -0.3199
v  -63.7244 30.2876 -0.3199
v  -64.2840 28.2887 -4.5316
v  -64.4068 29.5254 -2.0435
v  -35.3365 33.4931 -4.3176
v  -38.1507 32.8149 -5.2000
# 160 vertices

vn -0.8649 0.5017 -0.0170
vn -0.8625 0.5060 -0.0041
vn -0.8656 0.5001 -0.0269
vn -0.8636 0.5041 0.0000
vn -0.8625 0.5060 0.0041
vn -0.8648 0.5018 0.0170
vn -0.8655 0.5002 0.0268
vn 0.4498 0.8858 0.1146
vn 0.4713 0.8271 0.3061
vn 0.5892 0.8080 -0.0010
vn 0.0108 0.3341 0.9425
vn 0.0431 0.5587 0.8282
vn 0.0872 0.5537 0.8281
vn 0.2103 0.6349 0.7434
vn 0.2815 0.7774 0.5625
vn 0.2737 0.9332 0.2328
vn 0.3480 0.8146 0.4640
vn 0.2141 0.6347 0.7426
vn 0.2162 0.7766 0.5917
vn 0.0798 0.5620 0.8233
vn 0.0568 0.4085 0.9110
vn 0.1430 0.6694 0.7290
vn 0.0011 0.2027 0.9792
vn -0.0016 0.1515 0.9885
vn 0.3576 0.9339 -0.0000
vn 0.3543 0.9229 -0.1511
vn 0.3330 0.9315 -0.1464
vn 0.3145 0.8984 -0.3066
vn 0.3480 0.8146 -0.4640
vn 0.4512 0.8847 -0.1168
vn 0.2779 0.9318 -0.2335
vn 0.4907 0.8160 -0.3054
vn 0.5018 0.8650 -0.0000
vn 0.3543 0.9229 0.1511
vn 0.3145 0.8984 0.3066
vn 0.2853 0.8709 0.4001
vn 0.3330 0.9315 0.1464
vn -0.6350 0.6045 0.4810
vn -0.3343 0.4263 0.8406
vn -0.3266 0.4300 0.8417
vn -0.1727 0.2777 0.9450
vn -0.1164 0.2675 0.9565
vn -0.0456 0.1571 0.9865
vn -0.0228 0.1990 0.9797
vn -0.0008 0.3227 0.9465
vn 0.0711 0.5910 0.8035
vn 0.2004 0.8469 0.4925
vn 0.3176 0.9322 0.1738
vn 0.3381 0.9411 -0.0000
vn -0.0856 0.2365 0.9679
vn -0.2005 0.2999 0.9327
vn -0.3718 0.4626 0.8048
vn -0.5639 0.6438 0.5171
vn -0.5889 0.6576 0.4698
vn -0.6650 0.7288 0.1631
vn -0.4261 0.5179 0.7418
vn -0.2425 0.3774 0.8937
vn -0.1037 0.3173 0.9426
vn -0.0359 0.2891 0.9566
vn 0.0023 0.5144 0.8575
vn 0.0972 0.8178 0.5673
vn 0.2213 0.9506 0.2177
vn 0.3210 0.9471 -0.0000
vn 0.2141 0.6347 -0.7426
vn 0.3069 0.7487 -0.5877
vn 0.1050 0.4972 -0.8613
vn 0.0798 0.5620 -0.8233
vn 0.2162 0.7766 -0.5917
vn 0.1430 0.6694 -0.7290
vn 0.2853 0.8709 -0.4001
vn 0.2004 0.8469 -0.4925
vn 0.3176 0.9322 -0.1738
vn 0.2213 0.9506 -0.2177
vn 0.2272 0.9738 -0.0000
vn 0.1159 0.9559 0.2698
vn -0.0028 0.7807 0.6249
vn -0.1796 0.7749 0.6061
vn -0.0706 0.4880 0.8700
vn -0.0791 0.4276 0.9005
vn -0.1725 0.6803 0.7124
vn 0.0158 0.2732 -0.9618
vn -0.2137 0.9292 0.3016
vn -0.0128 0.9489 0.3154
vn 0.1252 0.9921 -0.0000
vn 0.1159 0.9559 -0.2698
vn 0.0972 0.8178 -0.5673
vn 0.0711 0.5910 -0.8035
vn 0.0568 0.4085 -0.9110
vn 0.0091 0.1289 -0.9916
vn -0.0008 0.3227 -0.9465
vn 0.0023 0.5144 -0.8575
vn -0.0028 0.7807 -0.6249
vn -0.0128 0.9489 -0.3154
vn -0.0156 0.9999 -0.0000
vn -0.2197 0.9756 -0.0000
vn -0.2332 0.8838 0.4057
vn -0.2195 0.6106 0.7609
vn -0.1340 0.4511 0.8824
vn -0.3055 0.5625 0.7683
vn -0.4594 0.6827 0.5683
vn -0.3427 0.7765 0.5288
vn -0.1796 0.7749 -0.6061
vn -0.2137 0.9292 -0.3016
vn -0.0062 0.1603 -0.9870
vn -0.0359 0.2891 -0.9566
vn -0.0706 0.4880 -0.8700
vn -0.1725 0.6803 -0.7124
vn -0.2332 0.8838 -0.4057
vn -0.2926 0.9562 -0.0000
vn -0.3889 0.8989 0.2016
vn -0.5554 0.7125 0.4288
vn -0.5977 0.7455 0.2949
vn -0.6084 0.7021 0.3700
vn -0.5537 0.8205 0.1418
vn -0.4162 0.9093 -0.0000
vn -0.6367 0.7630 0.1115
vn -0.5606 0.8281 -0.0000
vn -0.5537 0.8205 -0.1418
vn -0.3889 0.8989 -0.2016
vn -0.6531 0.7479 0.1189
vn -0.6419 0.7668 -0.0000
vn -0.6367 0.7630 -0.1115
vn -0.5554 0.7125 -0.4288
vn -0.3427 0.7765 -0.5288
vn -0.2195 0.6106 -0.7609
vn -0.6611 0.7503 -0.0000
vn -0.6531 0.7479 -0.1189
vn -0.5977 0.7455 -0.2949
vn -0.3055 0.5625 -0.7683
vn -0.1340 0.4511 -0.8824
vn -0.0791 0.4276 -0.9005
vn -0.1037 0.3173 -0.9426
vn -0.6650 0.7288 -0.1631
vn -0.2425 0.3774 -0.8937
vn -0.0856 0.2365 -0.9679
vn -0.2005 0.2999 -0.9327
vn -0.1114 0.1281 -0.9855
vn -0.3718 0.4626 -0.8048
vn -0.3329 0.5091 -0.7937
vn -0.5639 0.6438 -0.5171
vn -0.5889 0.6576 -0.4698
vn -0.6084 0.7021 -0.3700
vn -0.4594 0.6827 -0.5683
vn -0.4261 0.5179 -0.7418
vn -0.0074 -0.1131 -0.9936
vn -0.0346 -0.1721 -0.9845
vn -0.3415 0.5418 -0.7680
vn -0.6736 0.5848 -0.4519
vn -0.6752 0.7160 -0.1772
vn -0.6755 0.7374 -0.0000
vn -0.6752 0.7160 0.1772
vn 0.0178 0.0032 -0.9998
vn -0.5922 0.6053 0.5318
vn -0.7585 0.6200 0.2006
vn -0.7660 0.6428 -0.0003
vn -0.6855 0.7281 -0.0000
vn -0.5976 0.6038 -0.5276
vn -0.7640 0.6119 -0.2047
vn 0.2510 0.5607 -0.7891
vn 0.0618 0.4591 -0.8863
vn 0.8655 -0.5002 -0.0268
vn 0.8645 -0.5026 -0.0116
vn 0.8617 -0.5075 0.0000
vn 0.8645 -0.5025 0.0116
vn 0.8656 -0.5001 0.0269
# 165 vertex normals

vt -0.2654 -0.6403 1.0000
vt -0.2895 -0.5003 1.0000
vt -0.2808 -0.6392 1.0000
vt -0.2170 -0.6418 1.0000
vt -0.1453 -0.5003 1.0000
vt -0.1685 -0.6403 1.0000
vt -0.1531 -0.6392 1.0000
vt 0.3879 -0.9573 1.0000
vt 0.2299 -1.0000 1.0000
vt 0.5036 -0.9997 1.0000
vt 0.0488 -0.7041 1.0000
vt 0.0173 -0.8611 1.0000
vt 0.0718 -0.8665 1.0000
vt 0.1037 -0.9497 1.0000
vt 0.1790 -0.9516 1.0000
vt 0.2909 -0.9416 1.0000
vt 0.2323 -0.9096 1.0000
vt 0.1406 -0.8982 1.0000
vt 0.2008 -0.8638 1.0000
vt 0.1214 -0.8365 1.0000
vt 0.0993 -0.6840 1.0000
vt 0.1852 -0.8066 1.0000
vt 0.0321 -0.5080 1.0000
vt 0.0078 -0.5127 1.0000
vt 0.5036 -0.9156 1.0000
vt 0.6059 -0.9148 1.0000
vt 0.6105 -0.8706 1.0000
vt 0.7057 -0.8827 1.0000
vt 0.7748 -0.9096 1.0000
vt 0.6192 -0.9573 1.0000
vt 0.7162 -0.9416 1.0000
vt 0.7683 -0.9994 1.0000
vt 0.5036 -0.9612 1.0000
vt 0.4012 -0.9148 1.0000
vt 0.3015 -0.8827 1.0000
vt 0.2800 -0.8371 1.0000
vt 0.3966 -0.8706 1.0000
vt 0.1548 -0.0381 1.0000
vt 0.0523 -0.1055 1.0000
vt 0.0738 -0.1200 1.0000
vt 0.0304 -0.2037 1.0000
vt 0.0000 -0.2286 1.0000
vt 0.0071 -0.2968 1.0000
vt 0.0308 -0.4027 1.0000
vt 0.0794 -0.5039 1.0000
vt 0.1660 -0.6639 1.0000
vt 0.2695 -0.7816 1.0000
vt 0.3857 -0.8221 1.0000
vt 0.5036 -0.8683 1.0000
vt 0.0368 -0.3055 1.0000
vt 0.0586 -0.2187 1.0000
vt 0.1049 -0.1431 1.0000
vt 0.1905 -0.0872 1.0000
vt 0.2169 -0.1311 1.0000
vt 0.3454 -0.1045 1.0000
vt 0.1367 -0.1776 1.0000
vt 0.0935 -0.2421 1.0000
vt 0.0762 -0.3199 1.0000
vt 0.0631 -0.3920 1.0000
vt 0.1451 -0.5004 1.0000
vt 0.2551 -0.6471 1.0000
vt 0.3803 -0.7666 1.0000
vt 0.5036 -0.8175 1.0000
vt 0.8665 -0.8982 1.0000
vt 0.8281 -0.9516 1.0000
vt 0.9353 -0.8665 1.0000
vt 0.8857 -0.8365 1.0000
vt 0.8063 -0.8638 1.0000
vt 0.8219 -0.8066 1.0000
vt 0.7271 -0.8371 1.0000
vt 0.7376 -0.7816 1.0000
vt 0.6214 -0.8221 1.0000
vt 0.6268 -0.7666 1.0000
vt 0.5036 -0.7615 1.0000
vt 0.3725 -0.6370 1.0000
vt 0.2368 -0.4975 1.0000
vt 0.2292 -0.4212 1.0000
vt 0.1380 -0.4153 1.0000
vt 0.1156 -0.3798 1.0000
vt 0.1826 -0.3702 1.0000
vt 0.9583 -0.7041 1.0000
vt 0.3569 -0.4244 1.0000
vt 0.3618 -0.4957 1.0000
vt 0.5036 -0.6336 1.0000
vt 0.6346 -0.6370 1.0000
vt 0.7520 -0.6471 1.0000
vt 0.8411 -0.6639 1.0000
vt 0.9078 -0.6840 1.0000
vt 0.9750 -0.5080 1.0000
vt 0.9277 -0.5039 1.0000
vt 0.8620 -0.5004 1.0000
vt 0.7703 -0.4975 1.0000
vt 0.6453 -0.4957 1.0000
vt 0.5036 -0.4952 1.0000
vt 0.5036 -0.4259 1.0000
vt 0.2989 -0.3620 1.0000
vt 0.1723 -0.3223 1.0000
vt 0.1098 -0.3290 1.0000
vt 0.1470 -0.2666 1.0000
vt 0.1832 -0.2104 1.0000
vt 0.2305 -0.2870 1.0000
vt 0.7779 -0.4212 1.0000
vt 0.6502 -0.4244 1.0000
vt 0.9764 -0.4027 1.0000
vt 0.9440 -0.3920 1.0000
vt 0.8691 -0.4153 1.0000
vt 0.8245 -0.3702 1.0000
vt 0.7083 -0.3620 1.0000
vt 0.5036 -0.3591 1.0000
vt 0.3554 -0.2977 1.0000
vt 0.2564 -0.2347 1.0000
vt 0.2797 -0.1907 1.0000
vt 0.2528 -0.1706 1.0000
vt 0.3685 -0.2447 1.0000
vt 0.5036 -0.3017 1.0000
vt 0.3768 -0.1964 1.0000
vt 0.5036 -0.2472 1.0000
vt 0.6386 -0.2447 1.0000
vt 0.6517 -0.2977 1.0000
vt 0.3650 -0.1503 1.0000
vt 0.5036 -0.1959 1.0000
vt 0.6303 -0.1964 1.0000
vt 0.7507 -0.2347 1.0000
vt 0.7766 -0.2870 1.0000
vt 0.8348 -0.3223 1.0000
vt 0.5036 -0.1465 1.0000
vt 0.6421 -0.1503 1.0000
vt 0.7275 -0.1907 1.0000
vt 0.8601 -0.2666 1.0000
vt 0.8973 -0.3290 1.0000
vt 0.8915 -0.3798 1.0000
vt 0.9309 -0.3199 1.0000
vt 0.6617 -0.1045 1.0000
vt 0.9136 -0.2421 1.0000
vt 0.9703 -0.3055 1.0000
vt 0.9485 -0.2187 1.0000
vt 0.9767 -0.2037 1.0000
vt 0.9022 -0.1431 1.0000
vt 0.9333 -0.1200 1.0000
vt 0.8166 -0.0872 1.0000
vt 0.7902 -0.1311 1.0000
vt 0.7543 -0.1706 1.0000
vt 0.8239 -0.2104 1.0000
vt 0.8704 -0.1776 1.0000
vt 1.0000 -0.2968 1.0000
vt 0.9727 -0.2322 1.0000
vt 0.9717 -0.1048 1.0000
vt 0.8523 -0.0381 1.0000
vt 0.6728 -0.0572 1.0000
vt 0.5036 -0.0982 1.0000
vt 0.3343 -0.0572 1.0000
vt 0.9747 -0.5019 1.0000
vt 0.0991 -0.0296 1.0000
vt 0.3362 -0.0290 1.0000
vt 0.5036 -0.0000 1.0000
vt 0.5036 -0.0506 1.0000
vt 0.9125 -0.0329 1.0000
vt 0.6709 -0.0290 1.0000
vt 0.8918 -0.9490 1.0000
vt 0.9774 -0.8600 1.0000
# 160 texture coords

g studio_a10_mesh_09
f 1/1/1 2/2/2 3/3/3 
f 2/2/2 1/1/1 4/4/4 
f 5/5/5 2/2/2 4/4/4 
f 6/6/6 5/5/5 4/4/4 
f 5/5/5 6/6/6 7/7/7 
f 8/8/8 9/9/9 10/10/10 
f 11/11/11 12/12/12 13/13/13 
f 12/12/12 14/14/14 13/13/13 
f 13/13/13 14/14/14 15/15/15 
f 14/14/14 9/9/9 15/15/15 
f 15/15/15 9/9/9 16/16/16 
f 16/16/16 9/9/9 8/8/8 
f 17/17/17 16/16/16 8/8/8 
f 17/17/17 18/18/18 16/16/16 
f 19/19/19 18/18/18 17/17/17 
f 19/19/19 20/20/20 18/18/18 
f 20/20/20 13/13/13 18/18/18 
f 18/18/18 13/13/13 15/15/15 
f 18/18/18 15/15/15 16/16/16 
f 21/21/21 11/11/11 22/22/22 
f 23/23/23 11/11/11 21/21/21 
f 23/23/23 24/24/24 11/11/11 
f 24/24/24 12/12/12 11/11/11 
f 25/25/25 26/26/26 27/27/27 
f 26/26/26 28/28/28 27/27/27 
f 26/26/26 29/29/29 28/28/28 
f 26/26/26 30/30/30 29/29/29 
f 30/30/30 31/31/31 29/29/29 
f 30/30/30 32/32/32 31/31/31 
f 10/10/10 32/32/32 30/30/30 
f 33/33/33 10/10/10 30/30/30 
f 33/33/33 8/8/8 10/10/10 
f 34/34/34 8/8/8 33/33/33 
f 34/34/34 17/17/17 8/8/8 
f 35/35/35 17/17/17 34/34/34 
f 35/35/35 19/19/19 17/17/17 
f 19/19/19 35/35/35 36/36/36 
f 22/22/22 19/19/19 36/36/36 
f 22/22/22 20/20/20 19/19/19 
f 11/11/11 20/20/20 22/22/22 
f 11/11/11 13/13/13 20/20/20 
f 33/33/33 30/30/30 26/26/26 
f 25/25/25 33/33/33 26/26/26 
f 25/25/25 34/34/34 33/33/33 
f 37/37/37 34/34/34 25/25/25 
f 37/37/37 35/35/35 34/34/34 
f 36/36/36 35/35/35 37/37/37 
f 38/38/38 39/39/39 40/40/40 
f 40/40/40 39/39/39 41/41/41 
f 39/39/39 42/42/42 41/41/41 
f 41/41/41 42/42/42 43/43/43 
f 24/24/24 43/43/43 42/42/42 
f 44/44/44 43/43/43 24/24/24 
f 44/44/44 24/24/24 23/23/23 
f 45/45/45 44/44/44 23/23/23 
f 23/23/23 21/21/21 45/45/45 
f 45/45/45 21/21/21 46/46/46 
f 21/21/21 22/22/22 46/46/46 
f 46/46/46 22/22/22 47/47/47 
f 47/47/47 22/22/22 36/36/36 
f 47/47/47 36/36/36 48/48/48 
f 48/48/48 36/36/36 37/37/37 
f 48/48/48 37/37/37 49/49/49 
f 49/49/49 37/37/37 25/25/25 
f 49/49/49 25/25/25 27/27/27 
f 50/50/50 43/43/43 44/44/44 
f 41/41/41 43/43/43 50/50/50 
f 51/51/51 41/41/41 50/50/50 
f 51/51/51 52/52/52 41/41/41 
f 52/52/52 40/40/40 41/41/41 
f 53/53/53 40/40/40 52/52/52 
f 54/54/54 55/55/55 53/53/53 
f 54/54/54 53/53/53 52/52/52 
f 54/54/54 52/52/52 56/56/56 
f 56/56/56 52/52/52 51/51/51 
f 56/56/56 51/51/51 57/57/57 
f 57/57/57 51/51/51 50/50/50 
f 58/58/58 57/57/57 50/50/50 
f 58/58/58 50/50/50 44/44/44 
f 59/59/59 58/58/58 44/44/44 
f 59/59/59 44/44/44 45/45/45 
f 59/59/59 45/45/45 60/60/60 
f 45/45/45 46/46/46 60/60/60 
f 60/60/60 46/46/46 61/61/61 
f 61/61/61 46/46/46 47/47/47 
f 61/61/61 47/47/47 62/62/62 
f 62/62/62 47/47/47 48/48/48 
f 62/62/62 48/48/48 63/63/63 
f 63/63/63 48/48/48 49/49/49 
f 64/64/64 65/65/65 66/66/66 
f 64/64/64 66/66/66 67/67/67 
f 68/68/68 64/64/64 67/67/67 
f 68/68/68 67/67/67 69/69/69 
f 70/70/70 68/68/68 69/69/69 
f 71/71/71 70/70/70 69/69/69 
f 72/72/72 70/70/70 71/71/71 
f 73/73/73 72/72/72 71/71/71 
f 63/63/63 72/72/72 73/73/73 
f 74/74/74 63/63/63 73/73/73 
f 74/74/74 62/62/62 63/63/63 
f 75/75/75 62/62/62 74/74/74 
f 75/75/75 61/61/61 62/62/62 
f 76/76/76 61/61/61 75/75/75 
f 76/76/76 60/60/60 61/61/61 
f 76/76/76 77/77/77 60/60/60 
f 77/77/77 78/78/78 60/60/60 
f 78/78/78 59/59/59 60/60/60 
f 79/79/79 59/59/59 78/78/78 
f 58/58/58 59/59/59 79/79/79 
f 80/80/80 79/79/79 78/78/78 
f 67/67/67 66/66/66 81/81/81 
f 69/69/69 67/67/67 81/81/81 
f 77/77/77 80/80/80 78/78/78 
f 80/80/80 77/77/77 82/82/82 
f 82/82/82 77/77/77 76/76/76 
f 83/83/83 82/82/82 76/76/76 
f 83/83/83 76/76/76 75/75/75 
f 83/83/83 75/75/75 84/84/84 
f 84/84/84 75/75/75 74/74/74 
f 84/84/84 74/74/74 85/85/85 
f 74/74/74 73/73/73 85/85/85 
f 85/85/85 73/73/73 86/86/86 
f 73/73/73 71/71/71 86/86/86 
f 86/86/86 71/71/71 87/87/87 
f 71/71/71 69/69/69 87/87/87 
f 87/87/87 69/69/69 88/88/88 
f 88/88/88 69/69/69 81/81/81 
f 88/88/88 81/81/81 89/89/89 
f 90/90/90 88/88/88 89/89/89 
f 87/87/87 88/88/88 90/90/90 
f 91/91/91 87/87/87 90/90/90 
f 86/86/86 87/87/87 91/91/91 
f 92/92/92 86/86/86 91/91/91 
f 85/85/85 86/86/86 92/92/92 
f 93/93/93 85/85/85 92/92/92 
f 84/84/84 85/85/85 93/93/93 
f 94/94/94 84/84/84 93/93/93 
f 94/94/94 83/83/83 84/84/84 
f 82/82/82 83/83/83 94/94/94 
f 95/95/95 82/82/82 94/94/94 
f 96/96/96 82/82/82 95/95/95 
f 96/96/96 80/80/80 82/82/82 
f 96/96/96 97/97/97 80/80/80 
f 80/80/80 97/97/97 79/79/79 
f 97/97/97 98/98/98 79/79/79 
f 98/98/98 58/58/58 79/79/79 
f 57/57/57 58/58/58 98/98/98 
f 99/99/99 57/57/57 98/98/98 
f 100/100/100 57/57/57 99/99/99 
f 100/100/100 56/56/56 57/57/57 
f 101/101/101 99/99/99 98/98/98 
f 97/97/97 101/101/101 98/98/98 
f 101/101/101 97/97/97 96/96/96 
f 92/92/92 91/91/91 102/102/102 
f 92/92/92 102/102/102 103/103/103 
f 93/93/93 92/92/92 103/103/103 
f 94/94/94 93/93/93 103/103/103 
f 95/95/95 94/94/94 103/103/103 
f 90/90/90 104/104/104 105/105/105 
f 91/91/91 90/90/90 105/105/105 
f 106/106/106 91/91/91 105/105/105 
f 91/91/91 106/106/106 102/102/102 
f 102/102/102 106/106/106 107/107/107 
f 103/103/103 102/102/102 107/107/107 
f 108/108/108 103/103/103 107/107/107 
f 95/95/95 103/103/103 108/108/108 
f 109/109/109 95/95/95 108/108/108 
f 109/109/109 96/96/96 95/95/95 
f 110/110/110 96/96/96 109/109/109 
f 110/110/110 101/101/101 96/96/96 
f 110/110/110 111/111/111 101/101/101 
f 111/111/111 99/99/99 101/101/101 
f 111/111/111 112/112/112 99/99/99 
f 112/112/112 100/100/100 99/99/99 
f 112/112/112 113/113/113 100/100/100 
f 113/113/113 56/56/56 100/100/100 
f 114/114/114 111/111/111 110/110/110 
f 114/114/114 110/110/110 115/115/115 
f 115/115/115 110/110/110 109/109/109 
f 116/116/116 112/112/112 111/111/111 
f 114/114/114 116/116/116 111/111/111 
f 116/116/116 114/114/114 117/117/117 
f 117/117/117 114/114/114 115/115/115 
f 117/117/117 115/115/115 118/118/118 
f 115/115/115 119/119/119 118/118/118 
f 115/115/115 109/109/109 119/119/119 
f 109/109/109 108/108/108 119/119/119 
f 120/120/120 113/113/113 112/112/112 
f 116/116/116 120/120/120 112/112/112 
f 120/120/120 116/116/116 121/121/121 
f 121/121/121 116/116/116 117/117/117 
f 121/121/121 117/117/117 122/122/122 
f 117/117/117 118/118/118 122/122/122 
f 118/118/118 123/123/123 122/122/122 
f 119/119/119 123/123/123 118/118/118 
f 124/124/124 123/123/123 119/119/119 
f 119/119/119 108/108/108 124/124/124 
f 108/108/108 125/125/125 124/124/124 
f 107/107/107 125/125/125 108/108/108 
f 113/113/113 54/54/54 56/56/56 
f 55/55/55 54/54/54 113/113/113 
f 120/120/120 55/55/55 113/113/113 
f 55/55/55 120/120/120 126/126/126 
f 126/126/126 120/120/120 121/121/121 
f 126/126/126 121/121/121 127/127/127 
f 121/121/121 122/122/122 127/127/127 
f 122/122/122 128/128/128 127/127/127 
f 123/123/123 128/128/128 122/122/122 
f 123/123/123 129/129/129 128/128/128 
f 124/124/124 129/129/129 123/123/123 
f 130/130/130 129/129/129 124/124/124 
f 125/125/125 130/130/130 124/124/124 
f 131/131/131 130/130/130 125/125/125 
f 107/107/107 131/131/131 125/125/125 
f 106/106/106 131/131/131 107/107/107 
f 106/106/106 105/105/105 131/131/131 
f 131/131/131 105/105/105 132/132/132 
f 126/126/126 127/127/127 133/133/133 
f 130/130/130 131/131/131 132/132/132 
f 130/130/130 132/132/132 134/134/134 
f 132/132/132 135/135/135 134/134/134 
f 135/135/135 136/136/136 134/134/134 
f 136/136/136 135/135/135 137/137/137 
f 136/136/136 137/137/137 138/138/138 
f 137/137/137 139/139/139 138/138/138 
f 138/138/138 139/139/139 140/140/140 
f 141/141/141 138/138/138 140/140/140 
f 141/141/141 140/140/140 133/133/133 
f 142/142/142 141/141/141 133/133/133 
f 127/127/127 142/142/142 133/133/133 
f 128/128/128 142/142/142 127/127/127 
f 128/128/128 143/143/143 142/142/142 
f 129/129/129 143/143/143 128/128/128 
f 129/129/129 134/134/134 143/143/143 
f 129/129/129 130/130/130 134/134/134 
f 143/143/143 144/144/144 142/142/142 
f 143/143/143 134/134/134 144/144/144 
f 134/134/134 136/136/136 144/144/144 
f 136/136/136 138/138/138 144/144/144 
f 144/144/144 138/138/138 141/141/141 
f 142/142/142 144/144/144 141/141/141 
f 105/105/105 104/104/104 132/132/132 
f 104/104/104 135/135/135 132/132/132 
f 104/104/104 145/145/145 135/135/135 
f 135/135/135 145/145/145 137/137/137 
f 145/145/145 146/146/146 137/137/137 
f 137/137/137 146/146/146 147/147/147 
f 139/139/139 137/137/137 147/147/147 
f 139/139/139 147/147/147 148/148/148 
f 140/140/140 139/139/139 148/148/148 
f 140/140/140 148/148/148 149/149/149 
f 140/140/140 149/149/149 133/133/133 
f 150/150/150 133/133/133 149/149/149 
f 150/150/150 126/126/126 133/133/133 
f 150/150/150 55/55/55 126/126/126 
f 151/151/151 55/55/55 150/150/150 
f 55/55/55 151/151/151 53/53/53 
f 151/151/151 38/38/38 53/53/53 
f 38/38/38 40/40/40 53/53/53 
f 152/152/152 145/145/145 104/104/104 
f 146/146/146 145/145/145 152/152/152 
f 153/153/153 39/39/39 38/38/38 
f 154/154/154 153/153/153 38/38/38 
f 154/154/154 38/38/38 151/151/151 
f 155/155/155 154/154/154 151/151/151 
f 156/156/156 155/155/155 151/151/151 
f 156/156/156 149/149/149 155/155/155 
f 156/156/156 150/150/150 149/149/149 
f 156/156/156 151/151/151 150/150/150 
f 155/155/155 153/153/153 154/154/154 
f 148/148/148 147/147/147 157/157/157 
f 148/148/148 157/157/157 158/158/158 
f 149/149/149 148/148/148 158/158/158 
f 149/149/149 158/158/158 155/155/155 
f 158/158/158 157/157/157 155/155/155 
f 63/63/63 49/49/49 72/72/72 
f 49/49/49 27/27/27 72/72/72 
f 72/72/72 27/27/27 70/70/70 
f 27/27/27 28/28/28 70/70/70 
f 70/70/70 28/28/28 68/68/68 
f 28/28/28 29/29/29 68/68/68 
f 29/29/29 64/64/64 68/68/68 
f 29/29/29 31/31/31 64/64/64 
f 31/31/31 65/65/65 64/64/64 
f 31/31/31 32/32/32 65/65/65 
f 65/65/65 32/32/32 159/159/159 
f 65/65/65 159/159/159 66/66/66 
f 66/66/66 159/159/159 160/160/160 
f 66/66/66 160/160/160 81/81/81 
f 81/81/81 160/160/160 152/152/152 
f 81/81/81 152/152/152 89/89/89 
f 89/89/89 152/152/152 104/104/104 
f 89/89/89 104/104/104 90/90/90 
f 7/7/161 6/6/161 5/5/161 
f 4/4/162 5/5/162 6/6/162 
f 4/4/163 2/2/163 5/5/163 
f 4/4/164 1/1/164 2/2/164 
f 3/3/165 2/2/165 1/1/165 
# 298 faces

